<?xml version="1.0" encoding="UTF-8" standalone="no"?>
<!-- Created with Inkscape (http://www.inkscape.org/) -->

<svg
   width="182.86574mm"
   height="193.51762mm"
   viewBox="0 0 182.86574 193.51762"
   version="1.1"
   id="svg5"
   xml:space="preserve"
   xmlns:inkscape="http://www.inkscape.org/namespaces/inkscape"
   xmlns:sodipodi="http://sodipodi.sourceforge.net/DTD/sodipodi-0.dtd"
   xmlns="http://www.w3.org/2000/svg"
   xmlns:svg="http://www.w3.org/2000/svg"><sodipodi:namedview
     id="namedview7"
     pagecolor="#ffffff"
     bordercolor="#000000"
     borderopacity="0.25"
     inkscape:showpageshadow="2"
     inkscape:pageopacity="0.0"
     inkscape:pagecheckerboard="0"
     inkscape:deskcolor="#d1d1d1"
     inkscape:document-units="mm"
     showgrid="false" /><defs
     id="defs2" /><g
     inkscape:label="Layer 1"
     inkscape:groupmode="layer"
     id="layer1"
     transform="translate(-13.394127,-13.325756)"><g
       style="fill:none"
       id="g571"
       transform="matrix(5.7145545,0,0,5.373997,-78.038744,-61.910203)"><path
         d="M 47.593,41.008 C 47.844,40.573 48,40.083 48,39.643 V 24.367 c 0,-0.44 -0.156,-0.93 -0.407,-1.364 L 32,32.005 Z"
         fill="#00599c"
         id="path550" /><path
         d="m 33.386,49.68 13.228,-7.637 c 0.381,-0.22 0.728,-0.6 0.979,-1.035 L 32,32.005 16.407,41.008 c 0.251,0.435 0.598,0.815 0.979,1.035 l 13.228,7.637 c 0.762,0.44 2.01,0.44 2.772,0 z"
         fill="#004482"
         id="path552" /><path
         d="M 47.593,23.003 C 47.342,22.567 46.995,22.188 46.614,21.968 L 33.386,14.33 c -0.762,-0.44 -2.01,-0.44 -2.772,0 L 17.386,21.968 C 16.624,22.408 16,23.488 16,24.368 v 15.275 c 0,0.44 0.156,0.93 0.407,1.365 L 32,32.005 Z"
         fill="#659ad2"
         id="path554" /><path
         d="m 32,42.672 c -5.882,0 -10.667,-4.785 -10.667,-10.667 0,-5.882 4.785,-10.667 10.667,-10.667 3.795,0 7.335,2.043 9.237,5.33 L 36.621,29.34 A 5.356,5.356 0 0 0 32,26.672 5.34,5.34 0 0 0 26.667,32.005 5.34,5.34 0 0 0 32,37.34 5.356,5.356 0 0 0 36.621,34.671 l 4.616,2.671 A 10.705,10.705 0 0 1 32,42.671 Z"
         fill="#ffffff"
         id="path556" /><path
         d="M 42.667,31.413 H 41.48 v -1.186 h -1.185 v 1.186 H 39.11 v 1.185 h 1.185 v 1.185 h 1.185 v -1.185 h 1.186 v -1.185 z m 4.444,0 H 45.926 V 30.227 H 44.74 v 1.186 h -1.185 v 1.185 h 1.185 v 1.185 h 1.185 v -1.185 h 1.185 v -1.185 z"
         fill="#ffffff"
         id="path558" /></g></g></svg>
