<?xml version="1.0" encoding="UTF-8" standalone="no"?>
<!-- Created with Inkscape (http://www.inkscape.org/) -->

<svg
   width="183.29254mm"
   height="131.54391mm"
   viewBox="0 0 183.29254 131.54391"
   version="1.1"
   id="svg5"
   xml:space="preserve"
   xmlns:inkscape="http://www.inkscape.org/namespaces/inkscape"
   xmlns:sodipodi="http://sodipodi.sourceforge.net/DTD/sodipodi-0.dtd"
   xmlns="http://www.w3.org/2000/svg"
   xmlns:svg="http://www.w3.org/2000/svg"><sodipodi:namedview
     id="namedview7"
     pagecolor="#ffffff"
     bordercolor="#000000"
     borderopacity="0.25"
     inkscape:showpageshadow="2"
     inkscape:pageopacity="0.0"
     inkscape:pagecheckerboard="0"
     inkscape:deskcolor="#d1d1d1"
     inkscape:document-units="mm"
     showgrid="false" /><defs
     id="defs2"><clipPath
       id="a-3-6-5"><path
         d="M 0,279.433 H 322.5 V 0 H 0 Z"
         id="path858-7-3" /></clipPath></defs><g
     inkscape:label="Layer 1"
     inkscape:groupmode="layer"
     id="layer1"
     transform="translate(-14.348904,-37.194205)"><g
       fill="#2496ed"
       clip-path="url(#a-3-6-5)"
       transform="matrix(0.76125391,0,0,-0.76125391,-26.552406,245.17791)"
       id="g871"
       style="clip-rule:evenodd;fill-rule:evenodd;stroke-linejoin:round;stroke-miterlimit:2"><path
         d="m 292.132,207.986 c -0.653,0.525 -6.753,5.126 -19.61,5.126 -3.214,0 -6.606,-0.292 -10.13,-0.871 -2.485,17.057 -16.563,25.365 -17.217,25.742 l -3.457,1.99 -2.275,-3.275 c -0.17,-0.244 -4.172,-6.068 -6.135,-14.356 -2.305,-9.73 -0.905,-18.87 4.04,-26.691 -5.972,-3.323 -15.506,-4.191 -17.487,-4.215 H 61.266 c -4.138,0 -7.52,-3.362 -7.536,-7.494 -0.061,-14.587 2.343,-28.682 6.952,-40.761 5.466,-14.325 13.597,-24.872 24.166,-31.346 11.85,-7.26 31.144,-11.422 52.934,-11.422 10.196,0 20.357,0.92 29.385,2.66 14.229,2.745 27.146,7.434 38.39,13.937 9.82629,5.68567 18.66705,12.92504 26.179,21.437 12.57,14.214 20.054,30.088 25.62,44.138 0.73894,-0.0306 1.47843,-0.046 2.218,-0.046 13.759,0 22.216,5.499 26.889,10.113 5.067,5.003 6.87,9.993 7.059,10.545 l 0.984,2.882 z"
         id="path867"
         sodipodi:nodetypes="cscccccccscscscccccsccc" /><path
         d="m 75.966,196.074 h 21.251 a 1.86,1.86 0 0 1 1.86,1.86 v 18.934 a 1.86,1.86 0 0 1 -1.86,1.86 h -21.25 a 1.86,1.86 0 0 1 -1.86,-1.86 v -18.934 a 1.86,1.86 0 0 1 1.86,-1.86 m 29.284,0 h 21.25 a 1.86,1.86 0 0 1 1.861,1.86 v 18.934 a 1.86,1.86 0 0 1 -1.86,1.86 h -21.25 a 1.86,1.86 0 0 1 -1.86,-1.86 v -18.934 a 1.86,1.86 0 0 1 1.86,-1.86 m 29.738,0 h 21.252 a 1.86,1.86 0 0 1 1.86,1.86 v 18.934 a 1.86,1.86 0 0 1 -1.86,1.86 H 134.99 a 1.86,1.86 0 0 1 -1.86,-1.86 v -18.934 a 1.86,1.86 0 0 1 1.86,-1.86 m 29.383,0 h 21.251 a 1.86,1.86 0 0 1 1.86,1.86 v 18.934 a 1.86,1.86 0 0 1 -1.86,1.86 h -21.251 a 1.86,1.86 0 0 1 -1.86,-1.86 v -18.934 a 1.86,1.86 0 0 1 1.86,-1.86 m -59.122,27.242 h 21.25 a 1.86,1.86 0 0 1 1.861,1.86 v 18.934 a 1.86,1.86 0 0 1 -1.86,1.86 h -21.25 a 1.86,1.86 0 0 1 -1.86,-1.86 v -18.933 a 1.86,1.86 0 0 1 1.86,-1.861 m 29.738,0 h 21.252 a 1.86,1.86 0 0 1 1.86,1.86 v 18.934 a 1.86,1.86 0 0 1 -1.86,1.86 H 134.99 a 1.86,1.86 0 0 1 -1.86,-1.86 v -18.933 a 1.86,1.86 0 0 1 1.86,-1.861 m 29.383,0 h 21.251 a 1.86,1.86 0 0 1 1.86,1.86 v 18.934 a 1.86,1.86 0 0 1 -1.86,1.86 h -21.251 a 1.86,1.86 0 0 1 -1.86,-1.86 v -18.933 a 1.86,1.86 0 0 1 1.86,-1.861 m 0,27.242 h 21.251 a 1.86,1.86 0 0 1 1.86,1.86 v 18.934 a 1.86,1.86 0 0 1 -1.86,1.86 h -21.251 a 1.86,1.86 0 0 1 -1.86,-1.86 v -18.934 a 1.86,1.86 0 0 1 1.86,-1.86 m 29.642,-54.484 h 21.251 a 1.86,1.86 0 0 1 1.86,1.86 v 18.934 a 1.86,1.86 0 0 1 -1.86,1.86 h -21.25 a 1.86,1.86 0 0 1 -1.86,-1.86 v -18.934 a 1.86,1.86 0 0 1 1.86,-1.86"
         id="path869" /></g></g></svg>
