<?xml version="1.0" encoding="UTF-8" standalone="no"?>
<!-- Created with Inkscape (http://www.inkscape.org/) -->

<svg
   width="147.58458mm"
   height="204.39851mm"
   viewBox="0 0 147.58458 204.39851"
   version="1.1"
   id="svg5"
   xml:space="preserve"
   xmlns:inkscape="http://www.inkscape.org/namespaces/inkscape"
   xmlns:sodipodi="http://sodipodi.sourceforge.net/DTD/sodipodi-0.dtd"
   xmlns="http://www.w3.org/2000/svg"
   xmlns:svg="http://www.w3.org/2000/svg"><sodipodi:namedview
     id="namedview7"
     pagecolor="#ffffff"
     bordercolor="#000000"
     borderopacity="0.25"
     inkscape:showpageshadow="2"
     inkscape:pageopacity="0.0"
     inkscape:pagecheckerboard="0"
     inkscape:deskcolor="#d1d1d1"
     inkscape:document-units="mm"
     showgrid="false" /><defs
     id="defs2"><style
       id="style339">.cls-1{fill:#4d77cf;}.cls-2{fill:#4dabcf;}</style></defs><g
     inkscape:label="Layer 1"
     inkscape:groupmode="layer"
     id="layer1"
     transform="translate(-18.278582,-38.30033)"><g
       id="g4473"
       transform="matrix(0.26458333,0,0,0.26458333,-40.220792,8.1986379)">
	<path
   class="st0"
   d="M 587.4,392.8 510.1,464.7 438.4,320 475.5,236.8 c 9.4,-16.6 24.7,-16.8 34,0 z"
   id="path4465" />
	<path
   class="st1"
   d="M 510.1,464.7 221.1,733.5 438.4,320 Z"
   id="path4467" />
	<path
   class="st2"
   d="m 672.1,282.7 c 13.8,-13.2 28.1,-8.7 31.7,10 l 75.1,437.1 -249.2,149.7 c -8.7,4.9 -31.9,6.8 -31.9,6.8 0,0 -21.1,-2.6 -29.2,-7 L 221.1,733.5 Z"
   id="path4469" />
	<path
   class="st0"
   d="M 438.4,320 221.1,733.5 317.9,129.1 c 3.6,-18.7 14.3,-20.6 23.8,-4 z"
   id="path4471" />
</g></g><style
     type="text/css"
     id="style4463">
	.st0{fill:#F9A01B;}
	.st1{fill:#F58020;}
	.st2{fill:#FFCB2A;}
</style></svg>
