<?xml version="1.0" encoding="UTF-8" standalone="no"?>
<!-- Created with Inkscape (http://www.inkscape.org/) -->

<svg
   width="518.07922mm"
   height="518.07501mm"
   viewBox="0 0 518.07922 518.07501"
   version="1.1"
   id="svg5"
   xml:space="preserve"
   xmlns:inkscape="http://www.inkscape.org/namespaces/inkscape"
   xmlns:sodipodi="http://sodipodi.sourceforge.net/DTD/sodipodi-0.dtd"
   xmlns="http://www.w3.org/2000/svg"
   xmlns:svg="http://www.w3.org/2000/svg"><sodipodi:namedview
     id="namedview7"
     pagecolor="#ffffff"
     bordercolor="#000000"
     borderopacity="0.25"
     inkscape:showpageshadow="2"
     inkscape:pageopacity="0.0"
     inkscape:pagecheckerboard="0"
     inkscape:deskcolor="#d1d1d1"
     inkscape:document-units="mm"
     showgrid="false" /><defs
     id="defs2" /><g
     inkscape:label="Layer 1"
     inkscape:groupmode="layer"
     id="layer1"
     transform="translate(157.96346,68.766966)"><g
       id="g164"
       transform="matrix(8.0949221,0,0,8.0949221,-157.96315,-68.75613)"><path
         d="m 57.327,12.44 a 32,32 0 1 0 -5.761,44.88 c 13.98,-10.804 16.56,-30.895 5.76,-44.88 z"
         class="C"
         id="path94" /><path
         d="M 42.793,20.388 29.3,33.988 25.487,30.068 C 38.767,16.788 40.1,17.988 42.794,20.388 Z"
         class="D"
         id="path96" /><path
         d="m 29.3,34.36 a 0.48,0.48 0 0 1 -0.32,-0.133 l -3.84,-3.84 a 0.48,0.48 0 0 1 0,-0.667 C 38.233,16.627 40.02,17.24 43.113,20.04 a 0.427,0.427 0 0 1 0.16,0.347 c 0.02,0.13 -0.03,0.263 -0.133,0.347 L 29.647,34.228 A 0.506,0.506 0 0 1 29.3,34.361 Z m -3.147,-4.293 3.147,3.147 12.8,-12.8 a 2.88,2.88 0 0 0 -3.787,-0.64 c -2.32,1.04 -6.053,4.213 -12.16,10.293 z"
         class="C"
         id="path98" /><path
         d="m 33.167,37.748 -3.68,-3.76 13.493,-13.334 c 3.627,3.547 -1.76,9.467 -9.813,17.093 z"
         class="D"
         id="path100" /><path
         d="m 33.167,38.228 a 0.56,0.56 0 0 1 -0.32,-0.133 l -3.76,-3.68 a 0.56,0.56 0 0 1 0,-0.427 0.517,0.517 0 0 1 0,-0.347 L 42.58,20.148 a 0.506,0.506 0 0 1 0.693,0 4.136,4.136 0 0 1 1.333,3.173 c 0,3.6 -4.107,8.133 -11.093,14.747 a 0.56,0.56 0 0 1 -0.347,0.16 z M 30.18,33.988 33.193,37 C 38.526,31.96 43.62,26.76 43.646,23.24 a 3.04,3.04 0 0 0 -0.693,-2.053 z"
         class="C"
         id="path102" /><path
         d="m 25.593,30.148 2.667,2.667 a 0.16,0.16 0 0 1 0,0.24 l -5.627,1.2 a 0.533,0.533 0 0 1 -0.48,-0.907 l 3.28,-3.253 c 0,0 0.107,0 0.16,0.053 z"
         class="D"
         id="path104" /><path
         d="m 22.5,34.788 a 1.04,1.04 0 0 1 -0.88,-0.507 1.014,1.014 0 0 1 0.187,-1.2 l 3.253,-3.28 a 0.64,0.64 0 0 1 0.853,0 l 2.667,2.667 c 0.158,0.15 0.22,0.377 0.16,0.587 -0.06,0.21 -0.236,0.377 -0.453,0.427 l -5.627,1.2 z m 2.987,-4.053 -3.013,3.013 4.987,-1.067 z m 0.24,-0.24 z"
         class="C"
         id="path106" /><path
         d="m 49.967,12.894 c -1.93,-1.862 -4.962,-1.94 -6.986,-0.183 -2.024,1.757 -2.37,4.773 -0.794,6.943 1.576,2.17 4.547,2.778 6.847,1.4 l -3.627,-3.627 z"
         class="D"
         id="path108" /><path
         d="m 46.367,22.28 a 5.65,5.65 0 0 1 -5.156,-3.508 5.667,5.667 0 0 1 1.2,-6.118 5.71,5.71 0 0 1 8,0 c 0.102,0.086 0.16,0.213 0.16,0.347 a 0.46,0.46 0 0 1 -0.16,0.347 l -4.32,4.08 3.28,3.227 a 0.45,0.45 0 0 1 0.133,0.4 0.48,0.48 0 0 1 -0.213,0.347 5.8,5.8 0 0 1 -2.933,0.88 z m 0,-10.347 c -1.9,0.01 -3.6,1.153 -4.313,2.9 -0.713,1.747 -0.325,3.758 1.007,5.1 a 4.665,4.665 0 0 0 5.173,0.987 l -3.147,-3.147 a 0.427,0.427 0 0 1 0,-0.667 l 4.16,-4.187 a 4.785,4.785 0 0 0 -2.88,-0.987 z"
         class="C"
         id="path110" /><path
         d="m 50.047,12.974 -4.56,4.533 3.627,3.627 a 5.52,5.52 0 0 0 1.013,-0.747 5.333,5.333 0 0 0 -0.08,-7.413 z"
         class="D"
         id="path112" /><path
         d="m 49.033,21.534 a 0.4,0.4 0 0 1 -0.32,-0.133 l -3.627,-3.627 a 0.427,0.427 0 0 1 0,-0.667 l 4.533,-4.453 a 0.48,0.48 0 0 1 0.8,0 5.6,5.6 0 0 1 0,8 4.88,4.88 0 0 1 -1.067,0.853 0.43,0.43 0 0 1 -0.32,0.027 z m -2.933,-4.106 3.013,3.013 a 5.12,5.12 0 0 0 0.587,-0.48 4.72,4.72 0 0 0 1.387,-3.333 4.58,4.58 0 0 0 -1.147,-3.04 z"
         class="C"
         id="path114" /><path
         d="m 43.353,20.948 a 1.948,1.948 0 0 0 -2.667,0 L 28.607,33 l 2,2.027 12.773,-11.2 a 1.977,1.977 0 0 0 -0.027,-2.88 z"
         class="D"
         id="path116" /><path
         d="m 30.5,35.508 a 0.48,0.48 0 0 1 -0.32,-0.133 l -2.027,-2.027 a 0.48,0.48 0 0 1 0,-0.667 l 12.08,-12.027 a 2.454,2.454 0 0 1 4.187,1.813 2.51,2.51 0 0 1 -0.827,1.76 l -12.773,11.2 a 0.455,0.455 0 0 1 -0.32,0.08 z M 29.087,33 30.42,34.36 42.953,23.453 c 0.31,-0.27 0.495,-0.656 0.507,-1.067 0.012,-0.411 -0.15,-0.813 -0.453,-1.093 a 1.493,1.493 0 0 0 -2.107,0 z"
         class="C"
         id="path118" /><path
         d="m 19.247,46.734 a 0.27,0.27 0 0 0 0,0.32 l 0.533,2.32 a 0.688,0.688 0 0 1 -0.332,0.7 0.65,0.65 0 0 1 -0.762,-0.077 L 15.033,46.477 26.42,35 h 3.947 l 2.667,2.667 a 60.54,60.54 0 0 1 -13.787,9.067 z"
         class="D"
         id="path120" /><path
         d="m 19.007,50.654 c -0.302,-0.006 -0.6,-0.13 -0.8,-0.347 l -3.493,-3.493 a 0.427,0.427 0 0 1 0,-0.667 L 26.18,34.654 a 0.45,0.45 0 0 1 0.24,-0.133 h 3.973 a 0.48,0.48 0 0 1 0.32,0 l 2.667,2.667 a 0.426,0.426 0 0 1 0.133,0.373 0.43,0.43 0 0 1 -0.16,0.347 l -0.213,0.187 a 65.33,65.33 0 0 1 -13.68,8.773 l 0.507,2.16 a 1.15,1.15 0 0 1 -1.093,1.413 z M 15.754,46.467 18.9,49.64 a 0.16,0.16 0 0 0 0.213,0 0.16,0.16 0 0 0 0,-0.187 l -0.533,-2.32 a 0.744,0.744 0 0 1 0.4,-0.853 65.56,65.56 0 0 0 13.333,-8.587 l -2.187,-2.187 h -3.573 z m 3.84,0.48 z"
         class="C"
         id="path122" /><path
         d="m 12.287,49.214 2.667,-2.667 4.107,4.107 -6.533,-0.453 a 0.534,0.534 0 0 1 -0.24,-0.986 z"
         class="D"
         id="path124" /><path
         d="m 19.14,51.054 -6.507,-0.453 c -0.386,-0.036 -0.718,-0.3 -0.854,-0.653 -0.136,-0.353 -0.053,-0.772 0.214,-1.054 l 2.667,-2.667 a 0.48,0.48 0 0 1 0.667,0 l 4.08,4.08 a 0.452,0.452 0 0 1 0,0.533 0.507,0.507 0 0 1 -0.267,0.213 z m -6.507,-1.493 5.333,0.347 -2.933,-2.747 z"
         class="C"
         id="path126" /><path
         d="m 30.74,35.322 -5.387,0.827 3.12,-3.093 z"
         class="D"
         id="path128" /><path
         d="m 25.353,36.654 a 0.456,0.456 0 0 1 -0.427,-0.267 0.45,0.45 0 0 1 0,-0.533 l 3.093,-3.12 a 0.506,0.506 0 0 1 0.693,0 L 30.98,35 a 0.45,0.45 0 0 1 0,0.48 0.47,0.47 0 0 1 -0.373,0.347 l -5.333,0.827 z m 3.12,-2.907 -1.733,1.733 2.987,-0.453 z"
         class="C"
         id="path130" /><path
         d="M 30.74,35.32 26.98,35.8 A 0.48,0.48 0 0 1 26.527,35 l 1.947,-1.947 z"
         class="D"
         id="path132" /><path
         d="m 26.873,36.308 a 0.987,0.987 0 0 1 -0.853,-0.507 0.96,0.96 0 0 1 0.16,-1.147 l 1.947,-1.947 a 0.506,0.506 0 0 1 0.693,0 l 2.267,2.267 a 0.48,0.48 0 0 1 -0.293,0.827 l -3.733,0.48 z m 0,-0.987 2.827,-0.347 -1.253,-1.253 -1.6,1.6 z m 23.2,-19.28 a 0.4,0.4 0 0 0 -0.507,-0.16 0.37,0.37 0 0 0 -0.186,0.22 0.377,0.377 0 0 0 0.026,0.287 c 0.187,0.393 0.135,0.858 -0.133,1.2 a 0.338,0.338 0 0 0 -0.1,0.253 0.38,0.38 0 0 0 0.1,0.253 0.29,0.29 0 0 0 0.213,0 0.35,0.35 0 0 0 0.347,-0.107 1.84,1.84 0 0 0 0.24,-1.947 z"
         class="C"
         id="path134" /></g></g><style
     id="style92">.C{fill:#ff6c37}.D{fill:#fff}</style></svg>
