<?xml version="1.0" encoding="UTF-8" standalone="no"?>
<!-- Created with Inkscape (http://www.inkscape.org/) -->

<svg
   width="180.70042mm"
   height="72.636116mm"
   viewBox="0 0 180.70042 72.636116"
   version="1.1"
   id="svg5"
   xml:space="preserve"
   xmlns:inkscape="http://www.inkscape.org/namespaces/inkscape"
   xmlns:sodipodi="http://sodipodi.sourceforge.net/DTD/sodipodi-0.dtd"
   xmlns="http://www.w3.org/2000/svg"
   xmlns:svg="http://www.w3.org/2000/svg"><sodipodi:namedview
     id="namedview7"
     pagecolor="#ffffff"
     bordercolor="#000000"
     borderopacity="0.25"
     inkscape:showpageshadow="2"
     inkscape:pageopacity="0.0"
     inkscape:pagecheckerboard="0"
     inkscape:deskcolor="#d1d1d1"
     inkscape:document-units="mm"
     showgrid="false" /><defs
     id="defs2"><style
       id="style339">.cls-1{fill:#4d77cf;}.cls-2{fill:#4dabcf;}</style></defs><g
     inkscape:label="Layer 1"
     inkscape:groupmode="layer"
     id="layer1"
     transform="translate(-0.7369289,-0.80297718)"><g
       id="g4174"><rect
         style="fill:#ffffff;fill-opacity:1;stroke-width:0.234751"
         id="rect3943"
         width="180.70042"
         height="72.636116"
         x="0.73692888"
         y="0.8029772" /><g
         id="g3118"
         transform="matrix(0.65844763,0,0,0.65844763,-27.433432,0.26854443)"
         inkscape:export-filename="pot.svg"
         inkscape:export-xdpi="96"
         inkscape:export-ydpi="96"><path
           d="m 0,0 c 2.4375,0.1875 2.4375,0.1875 3.4375,1.1875 2.0195021,0.099352 4.0425091,0.1279951 6.0644531,0.1293945 1.2980459,0.00315 2.5960909,0.0063 3.9334719,0.00955 1.427775,-0.00179 2.85555,-0.00384 4.283325,-0.00613 1.453491,6.731e-4 2.906983,0.00164 4.360474,0.0029 3.049937,0.00148 6.099846,-6.77e-4 9.14978,-0.00534 3.917802,-0.0057 7.835535,-0.00242 11.753334,0.00357 3.00247,0.00361 6.004923,0.00247 9.007393,-1.278e-4 1.444956,-6.692e-4 2.889914,1.586e-4 4.334869,0.00248 2.016149,0.00253 4.032303,-0.002 6.048447,-0.0069 1.149481,-7.956e-4 2.298962,-0.00159 3.483276,-0.00241 2.512032,0.1659973 2.512032,0.1659973 3.581177,-1.1269836 2.4375,-0.1875 2.4375,-0.1875 5,0 2,2 2,2 2.25,4.5 -0.25,2.5 -0.25,2.5 -2.25,4.5 -2.5,0.25 -2.5,0.25 -5,0 -0.99,-0.99 -0.99,-0.99 -2,-2 C 64.699893,6.8801144 64.699893,6.8801144 61.458984,6.928714 59.576933,6.919254 59.576933,6.919254 57.65686,6.90961 c -1.375205,0.00358 -2.750408,0.00768 -4.12561,0.012268 -1.404827,-0.00135 -2.809653,-0.00329 -4.214478,-0.0058 -2.945642,-0.00295 -5.891163,0.00135 -8.836792,0.010681 -3.779865,0.011395 -7.559447,0.00483 -11.339302,-0.00714 -2.9013,-0.00722 -5.802532,-0.00493 -8.703834,2.556e-4 -1.393891,0.00134 -2.787788,-3.104e-4 -4.181671,-0.00496 -1.946385,-0.00507 -3.892791,0.00402 -5.839157,0.013801 -1.108715,0.00159 -2.2174296,0.00318 -3.3597416,0.00482 C 4.2783702,6.9229296 4.2783702,6.9229296 2.4375,9.1875 c -2.5,0.25 -2.5,0.25 -5,0 -2,-2 -2,-2 -2.25,-4.5 C -4.4586283,1.1487826 -3.5455389,0.25942967 0,0 Z"
           fill="#656565"
           transform="translate(231.5625,29.8125)"
           id="path2931" /><path
           d="m 0,0 c 2.4375,0.1875 2.4375,0.1875 3.4375,1.1875 2.0195021,0.099352 4.0425091,0.1279951 6.0644531,0.1293945 1.2980459,0.00315 2.5960909,0.0063 3.9334719,0.00955 1.427775,-0.00179 2.85555,-0.00384 4.283325,-0.00613 1.453491,6.731e-4 2.906983,0.00164 4.360474,0.0029 3.049937,0.00148 6.099846,-6.77e-4 9.14978,-0.00534 3.917802,-0.0057 7.835535,-0.00242 11.753334,0.00357 3.00247,0.00361 6.004923,0.00247 9.007393,-1.278e-4 1.444956,-6.692e-4 2.889914,1.586e-4 4.334869,0.00248 2.016149,0.00253 4.032303,-0.002 6.048447,-0.0069 1.149481,-7.956e-4 2.298962,-0.00159 3.483276,-0.00241 2.512032,0.1659973 2.512032,0.1659973 3.581177,-1.1269836 2.4375,-0.1875 2.4375,-0.1875 5,0 2,2 2,2 2.25,4.5 -0.25,2.5 -0.25,2.5 -2.25,4.5 -2.5,0.25 -2.5,0.25 -5,0 -0.99,-0.99 -0.99,-0.99 -2,-2 C 64.699893,6.8801144 64.699893,6.8801144 61.458984,6.928714 59.576933,6.919254 59.576933,6.919254 57.65686,6.90961 c -1.375205,0.00358 -2.750408,0.00768 -4.12561,0.012268 -1.404827,-0.00135 -2.809653,-0.00329 -4.214478,-0.0058 -2.945642,-0.00295 -5.891163,0.00135 -8.836792,0.010681 -3.779865,0.011395 -7.559447,0.00483 -11.339302,-0.00714 -2.9013,-0.00722 -5.802532,-0.00493 -8.703834,2.556e-4 -1.393891,0.00134 -2.787788,-3.104e-4 -4.181671,-0.00496 -1.946385,-0.00507 -3.892791,0.00402 -5.839157,0.013801 -1.108715,0.00159 -2.2174296,0.00318 -3.3597416,0.00482 C 4.2783702,6.9229296 4.2783702,6.9229296 2.4375,9.1875 c -2.5,0.25 -2.5,0.25 -5,0 -2,-2 -2,-2 -2.25,-4.5 C -4.4586283,1.1487826 -3.5455389,0.25942967 0,0 Z"
           fill="#656565"
           transform="translate(231.5625,15.8125)"
           id="path2933" /><path
           d="m 0,0 c 2.4375,0.1875 2.4375,0.1875 3.4375,1.1875 1.9276182,0.099209 3.8588935,0.1279936 5.7890625,0.1293945 1.2379835,0.00315 2.4759665,0.0063 3.7514645,0.00955 1.361492,-0.00179 2.722983,-0.00384 4.084473,-0.00613 1.386231,6.731e-4 2.772461,0.00164 4.158691,0.0029 2.908703,0.00148 5.817375,-6.768e-4 8.726075,-0.00534 3.7362,-0.0057 7.472329,-0.00242 11.208526,0.00357 2.863501,0.00361 5.726984,0.00247 8.590485,-1.278e-4 1.37797,-6.691e-4 2.755942,1.585e-4 4.133911,0.00248 1.92275,0.00253 3.845505,-0.00201 5.768249,-0.0069 1.096187,-7.956e-4 2.192374,-0.00159 3.321778,-0.00241 2.411519,0.1520587 2.411519,0.1520587 3.467285,-1.1269836 2.4375,-0.1875 2.4375,-0.1875 5,0 2,2 2,2 2.25,4.5 -0.25,2.5 -0.25,2.5 -2.25,4.5 -2.5,0.25 -2.5,0.25 -5,0 -0.99,-0.99 -0.99,-0.99 -2,-2 C 61.821915,6.8803997 61.821915,6.8803997 58.734375,6.928714 57.539736,6.922414 56.345098,6.916105 55.114258,6.90961 c -1.29583,0.00405 -2.59166,0.0081 -3.926758,0.012268 -1.337566,-0.00135 -2.675131,-0.00329 -4.012695,-0.0058 -2.80441,-0.00295 -5.608692,0.00134 -8.413086,0.010681 -3.598268,0.011395 -7.196238,0.00483 -10.794495,-0.00714 -2.762332,-0.00722 -5.524592,-0.00493 -8.286926,2.556e-4 -1.973187,0.00199 -3.946377,-0.0041 -5.919556,-0.010262 -1.194638,0.0063 -2.389277,0.012609 -3.620117,0.019104 -1.5831299,0.00239 -1.5831299,0.00239 -3.1982422,0.00482 -2.6771662,0.0048 -2.6771662,0.0048 -4.5048828,2.2539673 -2.5,0.25 -2.5,0.25 -5,0 -2,-2 -2,-2 -2.25,-4.5 C -4.4586283,1.1487826 -3.5455389,0.25942967 0,0 Z"
           fill="#656565"
           transform="translate(140.5625,58.8125)"
           id="path2935" /><path
           d="m 0,0 c 2.4375,0.1875 2.4375,0.1875 3.4375,1.1875 1.9276182,0.099209 3.8588935,0.1279936 5.7890625,0.1293945 1.2379835,0.00315 2.4759665,0.0063 3.7514645,0.00955 1.361492,-0.00179 2.722983,-0.00384 4.084473,-0.00613 1.386231,6.731e-4 2.772461,0.00164 4.158691,0.0029 2.908703,0.00148 5.817375,-6.768e-4 8.726075,-0.00534 3.7362,-0.0057 7.472329,-0.00242 11.208526,0.00357 2.863501,0.00361 5.726984,0.00247 8.590485,-1.278e-4 1.37797,-6.691e-4 2.755942,1.585e-4 4.133911,0.00248 1.92275,0.00253 3.845505,-0.00201 5.768249,-0.0069 1.096187,-7.956e-4 2.192374,-0.00159 3.321778,-0.00241 2.411519,0.1520587 2.411519,0.1520587 3.467285,-1.1269836 2.4375,-0.1875 2.4375,-0.1875 5,0 2,2 2,2 2.25,4.5 -0.25,2.5 -0.25,2.5 -2.25,4.5 -2.5,0.25 -2.5,0.25 -5,0 -0.99,-0.99 -0.99,-0.99 -2,-2 C 61.821915,6.8803997 61.821915,6.8803997 58.734375,6.928714 57.539736,6.922414 56.345098,6.916105 55.114258,6.90961 c -1.29583,0.00405 -2.59166,0.0081 -3.926758,0.012268 -1.337566,-0.00135 -2.675131,-0.00329 -4.012695,-0.0058 -2.80441,-0.00295 -5.608692,0.00134 -8.413086,0.010681 -3.598268,0.011395 -7.196238,0.00483 -10.794495,-0.00714 -2.762332,-0.00722 -5.524592,-0.00493 -8.286926,2.556e-4 -1.973187,0.00199 -3.946377,-0.0041 -5.919556,-0.010262 -1.194638,0.0063 -2.389277,0.012609 -3.620117,0.019104 -1.5831299,0.00239 -1.5831299,0.00239 -3.1982422,0.00482 -2.6771662,0.0048 -2.6771662,0.0048 -4.5048828,2.2539673 -2.5,0.25 -2.5,0.25 -5,0 -2,-2 -2,-2 -2.25,-4.5 C -4.4586283,1.1487826 -3.5455389,0.25942967 0,0 Z"
           fill="#656565"
           transform="translate(140.5625,43.8125)"
           id="path2937" /><path
           d="m 0,0 c 2.4375,0.1875 2.4375,0.1875 3.4375,1.1875 1.5599905,0.09847 3.1244054,0.1279862 4.6875,0.1293945 0.9977344,0.00315 1.995469,0.0063 3.023438,0.00955 1.08539,-0.00202 2.170781,-0.00405 3.289062,-0.00613 1.106016,9.567e-4 2.212031,0.00191 3.351562,0.0029 2.343751,6.82e-4 4.687504,-0.00117 7.03125,-0.00534 3.601606,-0.00535 7.203087,-5.56e-5 10.804688,0.00635 2.270834,-6.607e-4 4.541667,-0.00194 6.8125,-0.00391 1.085391,0.00202 2.170781,0.00405 3.289062,0.00613 0.997735,-0.00315 1.995469,-0.0063 3.023438,-0.00955 1.324512,-0.00119 1.324512,-0.00119 2.675781,-0.00241 2.009398,0.095723 2.009398,0.095723 3.011719,-1.1269836 2.4375,-0.1875 2.4375,-0.1875 5,0 2,2 2,2 2.25,4.5 -0.25,2.5 -0.25,2.5 -2.25,4.5 -2.5,0.25 -2.5,0.25 -5,0 -0.66,-0.66 -1.32,-1.32 -2,-2 -2.127297,-0.3056327 -2.127297,-0.3056327 -4.601563,-0.2587891 -0.954389,-0.0063 -1.908779,-0.012609 -2.892089,-0.019104 -1.033345,0.00405 -2.06669,0.0081 -3.131348,0.012268 -1.586755,-0.00287 -1.586755,-0.00287 -3.205566,-0.0058 -2.239423,-0.00136 -4.478854,0.00234 -6.718262,0.010681 -3.437029,0.010698 -6.873535,1.073e-4 -10.310547,-0.012695 -2.171876,0.00132 -4.343752,0.00388 -6.515625,0.00781 -1.033345,-0.00405 -2.066689,-0.0081 -3.131348,-0.012268 -0.954389,0.0063 -1.908779,0.012609 -2.8920895,0.019104 -1.2633618,0.00239 -1.2633618,0.00239 -2.5522461,0.00482 C 4.213036,7.0021148 4.213036,7.0021148 2.4375,9.1875 c -2.5,0.25 -2.5,0.25 -5,0 -2,-2 -2,-2 -2.25,-4.5 C -4.4586283,1.1487826 -3.5455389,0.25942967 0,0 Z"
           fill="#656565"
           transform="translate(56.5625,43.8125)"
           id="path2939" /><path
           d="m 0,0 c 2.4375,0.1875 2.4375,0.1875 3.4375,1.1875 1.5599905,0.09847 3.1244054,0.1279862 4.6875,0.1293945 0.9977344,0.00315 1.995469,0.0063 3.023438,0.00955 1.08539,-0.00202 2.170781,-0.00405 3.289062,-0.00613 1.106016,9.567e-4 2.212031,0.00191 3.351562,0.0029 2.343751,6.82e-4 4.687504,-0.00117 7.03125,-0.00534 3.601606,-0.00535 7.203087,-5.56e-5 10.804688,0.00635 2.270834,-6.607e-4 4.541667,-0.00194 6.8125,-0.00391 1.085391,0.00202 2.170781,0.00405 3.289062,0.00613 0.997735,-0.00315 1.995469,-0.0063 3.023438,-0.00955 1.324512,-0.00119 1.324512,-0.00119 2.675781,-0.00241 2.009398,0.095723 2.009398,0.095723 3.011719,-1.1269836 2.4375,-0.1875 2.4375,-0.1875 5,0 2,2 2,2 2.25,4.5 -0.25,2.5 -0.25,2.5 -2.25,4.5 -2.5,0.25 -2.5,0.25 -5,0 -0.66,-0.66 -1.32,-1.32 -2,-2 -2.127297,-0.3056327 -2.127297,-0.3056327 -4.601563,-0.2587891 -0.954389,-0.0063 -1.908779,-0.012609 -2.892089,-0.019104 -1.033345,0.00405 -2.06669,0.0081 -3.131348,0.012268 -1.586755,-0.00287 -1.586755,-0.00287 -3.205566,-0.0058 -2.239423,-0.00136 -4.478854,0.00234 -6.718262,0.010681 -3.437029,0.010698 -6.873535,1.073e-4 -10.310547,-0.012695 -2.171876,0.00132 -4.343752,0.00388 -6.515625,0.00781 -1.033345,-0.00405 -2.066689,-0.0081 -3.131348,-0.012268 -0.954389,0.0063 -1.908779,0.012609 -2.8920895,0.019104 -1.2633618,0.00239 -1.2633618,0.00239 -2.5522461,0.00482 C 4.213036,7.0021148 4.213036,7.0021148 2.4375,9.1875 c -2.5,0.25 -2.5,0.25 -5,0 -2,-2 -2,-2 -2.25,-4.5 C -4.4586283,1.1487826 -3.5455389,0.25942967 0,0 Z"
           fill="#656565"
           transform="translate(56.5625,29.8125)"
           id="path2941" /><path
           d="m 0,0 c 2.4375,0.1875 2.4375,0.1875 3.4375,1.1875 1.4067522,0.098048 2.8183514,0.1279819 4.2285156,0.1293945 0.8976306,0.00315 1.7952613,0.0063 2.7200924,0.00955 0.976022,-0.00202 1.952044,-0.00405 2.957642,-0.00613 1.492553,0.00144 1.492553,0.00144 3.015259,0.0029 2.108358,6.819e-4 4.216719,-0.00117 6.325073,-0.00534 3.239468,-0.00535 6.478798,-5.54e-5 9.718262,0.00635 2.042969,-6.607e-4 4.085938,-0.00194 6.128906,-0.00391 1.464033,0.00304 1.464033,0.00304 2.957642,0.00613 1.346446,-0.00473 1.346446,-0.00473 2.720092,-0.00955 0.794184,-7.956e-4 1.588367,-0.00159 2.406617,-0.00241 1.841797,0.071862 1.841797,0.071862 2.821899,-1.1269836 2.4375,-0.1875 2.4375,-0.1875 5,0 2,2 2,2 2.25,4.5 -0.25,2.5 -0.25,2.5 -2.25,4.5 -2.5,0.25 -2.5,0.25 -5,0 -0.66,-0.66 -1.32,-1.32 -2,-2 -1.923719,-0.3047987 -1.923719,-0.3047987 -4.142578,-0.2587891 -1.281429,-0.00946 -1.281429,-0.00946 -2.588745,-0.019104 -1.385964,0.00607 -1.385964,0.00607 -2.799927,0.012268 -0.946857,-0.00191 -1.893713,-0.00383 -2.869263,-0.0058 -2.004031,-0.00136 -4.008071,0.00234 -6.012085,0.010681 -3.074908,0.010699 -6.149231,1.065e-4 -9.224121,-0.012695 -1.944011,0.00132 -3.888023,0.00388 -5.832031,0.00781 -0.923976,-0.00405 -1.847952,-0.0081 -2.799927,-0.012268 -0.854286,0.0063 -1.7085715,0.012609 -2.5887449,0.019104 -0.7534167,0.00159 -1.5068335,0.00318 -2.283081,0.00482 C 4.1916099,7.0301132 4.1916099,7.0301132 2.4375,9.1875 c -2.5,0.25 -2.5,0.25 -5,0 -2,-2 -2,-2 -2.25,-4.5 C -4.4586283,1.1487826 -3.5455389,0.25942967 0,0 Z"
           fill="#646464"
           transform="translate(149.5625,72.8125)"
           id="path2943" /><path
           d="m 0,0 c 2.4375,0.1875 2.4375,0.1875 3.4375,1.1875 1.4067522,0.098048 2.8183514,0.1279819 4.2285156,0.1293945 0.8976306,0.00315 1.7952613,0.0063 2.7200924,0.00955 0.976022,-0.00202 1.952044,-0.00405 2.957642,-0.00613 1.492553,0.00144 1.492553,0.00144 3.015259,0.0029 2.108358,6.819e-4 4.216719,-0.00117 6.325073,-0.00534 3.239468,-0.00535 6.478798,-5.54e-5 9.718262,0.00635 2.042969,-6.607e-4 4.085938,-0.00194 6.128906,-0.00391 1.464033,0.00304 1.464033,0.00304 2.957642,0.00613 1.346446,-0.00473 1.346446,-0.00473 2.720092,-0.00955 0.794184,-7.956e-4 1.588367,-0.00159 2.406617,-0.00241 1.841797,0.071862 1.841797,0.071862 2.821899,-1.1269836 2.4375,-0.1875 2.4375,-0.1875 5,0 2,2 2,2 2.25,4.5 -0.25,2.5 -0.25,2.5 -2.25,4.5 -2.5,0.25 -2.5,0.25 -5,0 -0.66,-0.66 -1.32,-1.32 -2,-2 -1.923719,-0.3047987 -1.923719,-0.3047987 -4.142578,-0.2587891 -1.281429,-0.00946 -1.281429,-0.00946 -2.588745,-0.019104 -1.385964,0.00607 -1.385964,0.00607 -2.799927,0.012268 -0.946857,-0.00191 -1.893713,-0.00383 -2.869263,-0.0058 -2.004031,-0.00136 -4.008071,0.00234 -6.012085,0.010681 -3.074908,0.010699 -6.149231,1.065e-4 -9.224121,-0.012695 -1.944011,0.00132 -3.888023,0.00388 -5.832031,0.00781 -0.923976,-0.00405 -1.847952,-0.0081 -2.799927,-0.012268 -0.854286,0.0063 -1.7085715,0.012609 -2.5887449,0.019104 -0.7534167,0.00159 -1.5068335,0.00318 -2.283081,0.00482 C 4.1916099,7.0301132 4.1916099,7.0301132 2.4375,9.1875 c -2.5,0.25 -2.5,0.25 -5,0 -2,-2 -2,-2 -2.25,-4.5 C -4.4586283,1.1487826 -3.5455389,0.25942967 0,0 Z"
           fill="#646464"
           transform="translate(149.5625,29.8125)"
           id="path2945" /><path
           d="m 0,0 c 2.4375,0.1875 2.4375,0.1875 3.4375,1.1875 2.6545619,0.1009556 5.2825518,0.13971 7.9375,0.1328125 1.192906,0.00144 1.192906,0.00144 2.409912,0.0029 1.684653,6.817e-4 3.369308,-0.00117 5.053955,-0.00534 2.587625,-0.00535 5.175076,-5.49e-5 7.762695,0.00635 1.632813,-6.607e-4 3.265626,-0.00194 4.898438,-0.00391 0.779158,0.00202 1.558315,0.00405 2.361084,0.00613 3.584358,0.3194493 3.584358,0.3194493 6.576416,-1.1389465 2.4375,-0.1875 2.4375,-0.1875 5,0 2,2 2,2 2.25,4.5 -0.25,2.5 -0.25,2.5 -2.25,4.5 -2.5,0.25 -2.5,0.25 -5,0 -0.66,-0.66 -1.32,-1.32 -2,-2 C 35.879995,6.9879263 33.433119,6.9076277 30.875,6.921871 30.127908,6.919961 29.380815,6.918041 28.611084,6.916071 27.030758,6.914711 25.450421,6.918401 23.870117,6.926752 21.447011,6.937452 19.024646,6.9268564 16.601562,6.914057 15.067707,6.9153841 13.533851,6.9179465 12,6.921875 11.272888,6.9178265 10.545776,6.9137781 9.7966309,6.9096069 5.6628037,6.820185 5.6628037,6.820185 2.4375,9.1875 c -2.5,0.25 -2.5,0.25 -5,0 -2,-2 -2,-2 -2.25,-4.5 C -4.4586283,1.1487826 -3.5455389,0.25942967 0,0 Z"
           fill="#646464"
           transform="translate(56.5625,58.8125)"
           id="path2947" /><path
           d="m 0,0 c 2.4375,0.1875 2.4375,0.1875 3.4375,1.1875 2.6545619,0.1009556 5.2825518,0.13971 7.9375,0.1328125 1.192906,0.00144 1.192906,0.00144 2.409912,0.0029 1.684653,6.817e-4 3.369308,-0.00117 5.053955,-0.00534 2.587625,-0.00535 5.175076,-5.49e-5 7.762695,0.00635 1.632813,-6.607e-4 3.265626,-0.00194 4.898438,-0.00391 0.779158,0.00202 1.558315,0.00405 2.361084,0.00613 3.584358,0.3194493 3.584358,0.3194493 6.576416,-1.1389465 2.4375,-0.1875 2.4375,-0.1875 5,0 2,2 2,2 2.25,4.5 -0.25,2.5 -0.25,2.5 -2.25,4.5 -2.5,0.25 -2.5,0.25 -5,0 -0.66,-0.66 -1.32,-1.32 -2,-2 C 35.879995,6.9879263 33.433119,6.9076277 30.875,6.921871 30.127908,6.919961 29.380815,6.918041 28.611084,6.916071 27.030758,6.914711 25.450421,6.918401 23.870117,6.926752 21.447011,6.937452 19.024646,6.9268564 16.601562,6.914057 15.067707,6.9153841 13.533851,6.9179465 12,6.921875 11.272888,6.9178265 10.545776,6.9137781 9.7966309,6.9096069 5.6628037,6.820185 5.6628037,6.820185 2.4375,9.1875 c -2.5,0.25 -2.5,0.25 -5,0 -2,-2 -2,-2 -2.25,-4.5 C -4.4586283,1.1487826 -3.5455389,0.25942967 0,0 Z"
           fill="#646464"
           transform="translate(56.5625,15.8125)"
           id="path2949" /><path
           d="m 0,0 c 2.4375,0.1875 2.4375,0.1875 3.4375,1.1875 1.6642905,0.098239 3.3328193,0.1297363 5,0.125 0.9075,0.00258 1.815,0.00516 2.75,0.00781 2.219666,0.1189253 2.219666,0.1189253 3.25,-1.1328125 2.4375,-0.1875 2.4375,-0.1875 5,0 2,2 2,2 2.25,4.5 -0.25,2.5 -0.25,2.5 -2.25,4.5 -2.5,0.25 -2.5,0.25 -5,0 -0.66,-0.66 -1.32,-1.32 -2,-2 -1.910063,-0.3176246 -1.910063,-0.3176246 -4,-0.25 C 7.73625,6.9323437 7.035,6.9271875 6.3125,6.921875 4.1939331,7.0304448 4.1939331,7.0304448 2.4375,9.1875 c -2.5,0.25 -2.5,0.25 -5,0 -2,-2 -2,-2 -2.25,-4.5 C -4.4586283,1.1487826 -3.5455389,0.25942967 0,0 Z"
           fill="#531219"
           transform="translate(166.5625,86.8125)"
           id="path2951" /><path
           d="m 0,0 c 2.4375,0.1875 2.4375,0.1875 3.4375,1.1875 1.6642905,0.098239 3.3328193,0.1297363 5,0.125 0.9075,0.00258 1.815,0.00516 2.75,0.00781 2.219666,0.1189253 2.219666,0.1189253 3.25,-1.1328125 2.4375,-0.1875 2.4375,-0.1875 5,0 2,2 2,2 2.25,4.5 -0.25,2.5 -0.25,2.5 -2.25,4.5 -2.5,0.25 -2.5,0.25 -5,0 -0.66,-0.66 -1.32,-1.32 -2,-2 -1.910063,-0.3176246 -1.910063,-0.3176246 -4,-0.25 C 7.73625,6.9323437 7.035,6.9271875 6.3125,6.921875 4.1939331,7.0304448 4.1939331,7.0304448 2.4375,9.1875 c -2.5,0.25 -2.5,0.25 -5,0 -2,-2 -2,-2 -2.25,-4.5 C -4.4586283,1.1487826 -3.5455389,0.25942967 0,0 Z"
           fill="#531219"
           transform="translate(166.5625,15.8125)"
           id="path2953" /><path
           d="m 0,0 c 2.4375,0.1875 2.4375,0.1875 3.4375,1.1875 3.5,0.1666667 3.5,0.1666667 7,0 0.33,-0.33 0.66,-0.66 1,-1 2.4375,-0.1875 2.4375,-0.1875 5,0 2,2 2,2 2.25,4.5 -0.25,2.5 -0.25,2.5 -2.25,4.5 -2.5,0.25 -2.5,0.25 -5,0 -0.66,-0.66 -1.32,-1.32 -2,-2 -2.5,-0.3333333 -2.5,-0.3333333 -5,0 -0.66,0.66 -1.32,1.32 -2,2 -2.5,0.25 -2.5,0.25 -5,0 -2,-2 -2,-2 -2.25,-4.5 C -4.4586283,1.1487826 -3.5455389,0.25942967 0,0 Z"
           fill="#0f0812"
           transform="translate(260.5625,86.8125)"
           id="path2955" /><path
           d="m 0,0 c 2.4375,0.1875 2.4375,0.1875 3.4375,1.1875 3.5,0.1666667 3.5,0.1666667 7,0 0.33,-0.33 0.66,-0.66 1,-1 2.4375,-0.1875 2.4375,-0.1875 5,0 2,2 2,2 2.25,4.5 -0.25,2.5 -0.25,2.5 -2.25,4.5 -2.5,0.25 -2.5,0.25 -5,0 -0.66,-0.66 -1.32,-1.32 -2,-2 -2.5,-0.3333333 -2.5,-0.3333333 -5,0 -0.66,0.66 -1.32,1.32 -2,2 -2.5,0.25 -2.5,0.25 -5,0 -2,-2 -2,-2 -2.25,-4.5 C -4.4586283,1.1487826 -3.5455389,0.25942967 0,0 Z"
           fill="#0f0812"
           transform="translate(56.5625,86.8125)"
           id="path2957" /><path
           d="m 0,0 c 2.4375,0.1875 2.4375,0.1875 3.4375,1.1875 3.5,0.1666667 3.5,0.1666667 7,0 0.33,-0.33 0.66,-0.66 1,-1 2.4375,-0.1875 2.4375,-0.1875 5,0 2,2 2,2 2.25,4.5 -0.25,2.5 -0.25,2.5 -2.25,4.5 -2.5,0.25 -2.5,0.25 -5,0 -0.66,-0.66 -1.32,-1.32 -2,-2 -2.5,-0.3333333 -2.5,-0.3333333 -5,0 -0.66,0.66 -1.32,1.32 -2,2 -2.5,0.25 -2.5,0.25 -5,0 -2,-2 -2,-2 -2.25,-4.5 C -4.4586283,1.1487826 -3.5455389,0.25942967 0,0 Z"
           fill="#0f0812"
           transform="translate(260.5625,72.8125)"
           id="path2959" /><path
           d="m 0,0 c 2.4375,0.1875 2.4375,0.1875 3.4375,1.1875 3.5,0.1666667 3.5,0.1666667 7,0 0.33,-0.33 0.66,-0.66 1,-1 2.4375,-0.1875 2.4375,-0.1875 5,0 2,2 2,2 2.25,4.5 -0.25,2.5 -0.25,2.5 -2.25,4.5 -2.5,0.25 -2.5,0.25 -5,0 -0.66,-0.66 -1.32,-1.32 -2,-2 -2.5,-0.3333333 -2.5,-0.3333333 -5,0 -0.66,0.66 -1.32,1.32 -2,2 -2.5,0.25 -2.5,0.25 -5,0 -2,-2 -2,-2 -2.25,-4.5 C -4.4586283,1.1487826 -3.5455389,0.25942967 0,0 Z"
           fill="#0f0812"
           transform="translate(56.5625,72.8125)"
           id="path2961" /><path
           d="m 0,0 c 2.4375,0.1875 2.4375,0.1875 3.4375,1.1875 3.5,0.1666667 3.5,0.1666667 7,0 0.33,-0.33 0.66,-0.66 1,-1 2.4375,-0.1875 2.4375,-0.1875 5,0 2,2 2,2 2.25,4.5 -0.25,2.5 -0.25,2.5 -2.25,4.5 -2.5,0.25 -2.5,0.25 -5,0 -0.66,-0.66 -1.32,-1.32 -2,-2 -2.5,-0.3333333 -2.5,-0.3333333 -5,0 -0.66,0.66 -1.32,1.32 -2,2 -2.5,0.25 -2.5,0.25 -5,0 -2,-2 -2,-2 -2.25,-4.5 C -4.4586283,1.1487826 -3.5455389,0.25942967 0,0 Z"
           fill="#0f0812"
           transform="translate(260.5625,58.8125)"
           id="path2963" /><path
           d="m 0,0 c 2.4375,0.1875 2.4375,0.1875 3.4375,1.1875 3.5,0.1666667 3.5,0.1666667 7,0 0.33,-0.33 0.66,-0.66 1,-1 2.4375,-0.1875 2.4375,-0.1875 5,0 2,2 2,2 2.25,4.5 -0.25,2.5 -0.25,2.5 -2.25,4.5 -2.5,0.25 -2.5,0.25 -5,0 -0.66,-0.66 -1.32,-1.32 -2,-2 -2.5,-0.3333333 -2.5,-0.3333333 -5,0 -0.66,0.66 -1.32,1.32 -2,2 -2.5,0.25 -2.5,0.25 -5,0 -2,-2 -2,-2 -2.25,-4.5 C -4.4586283,1.1487826 -3.5455389,0.25942967 0,0 Z"
           fill="#0f0812"
           transform="translate(260.5625,43.8125)"
           id="path2965" /><path
           d="m 0,0 c 2.5,0.25 2.5,0.25 4.5,2.25 0.25,2.5 0.25,2.5 0,5 -2,2 -2,2 -4.5,2.25 -2.5,-0.25 -2.5,-0.25 -4.5,-2.25 -0.25,-2.5 -0.25,-2.5 0,-5 2,-2 2,-2 4.5,-2.25 z"
           fill="#03038d"
           transform="translate(201.5,72.75)"
           id="path2967" /><path
           d="m 0,0 c 2.5,0.25 2.5,0.25 4.5,2.25 0.25,2.5 0.25,2.5 0,5 -2,2 -2,2 -4.5,2.25 -2.5,-0.25 -2.5,-0.25 -4.5,-2.25 -0.25,-2.5 -0.25,-2.5 0,-5 2,-2 2,-2 4.5,-2.25 z"
           fill="#771818"
           transform="translate(149.5,72.75)"
           id="path2969" /><path
           d="m 0,0 c 2.5,0.25 2.5,0.25 4.5,2.25 0.25,2.5 0.25,2.5 0,5 -2,2 -2,2 -4.5,2.25 -2.5,-0.25 -2.5,-0.25 -4.5,-2.25 -0.25,-2.5 -0.25,-2.5 0,-5 2,-2 2,-2 4.5,-2.25 z"
           fill="#03038d"
           transform="translate(209.5,58.75)"
           id="path2971" /><path
           d="m 0,0 c 2.5,0.25 2.5,0.25 4.5,2.25 0.25,2.5 0.25,2.5 0,5 -2,2 -2,2 -4.5,2.25 -2.5,-0.25 -2.5,-0.25 -4.5,-2.25 -0.25,-2.5 -0.25,-2.5 0,-5 2,-2 2,-2 4.5,-2.25 z"
           fill="#771818"
           transform="translate(140.5,58.75)"
           id="path2973" /><path
           d="m 0,0 c 2.5,0.25 2.5,0.25 4.5,2.25 0.25,2.5 0.25,2.5 0,5 -2,2 -2,2 -4.5,2.25 -2.5,-0.25 -2.5,-0.25 -4.5,-2.25 -0.25,-2.5 -0.25,-2.5 0,-5 2,-2 2,-2 4.5,-2.25 z"
           fill="#03038d"
           transform="translate(99.5,58.75)"
           id="path2975" /><path
           d="m 0,0 c 2.5,0.25 2.5,0.25 4.5,2.25 0.25,2.5 0.25,2.5 0,5 -2,2 -2,2 -4.5,2.25 -2.5,-0.25 -2.5,-0.25 -4.5,-2.25 -0.25,-2.5 -0.25,-2.5 0,-5 2,-2 2,-2 4.5,-2.25 z"
           fill="#771818"
           transform="translate(56.5,58.75)"
           id="path2977" /><path
           d="m 0,0 c 2.5,0.25 2.5,0.25 4.5,2.25 0.25,2.5 0.25,2.5 0,5 -2,2 -2,2 -4.5,2.25 -2.5,-0.25 -2.5,-0.25 -4.5,-2.25 -0.25,-2.5 -0.25,-2.5 0,-5 2,-2 2,-2 4.5,-2.25 z"
           fill="#03038d"
           transform="translate(209.5,43.75)"
           id="path2979" /><path
           d="m 0,0 c 2.5,0.25 2.5,0.25 4.5,2.25 0.25,2.5 0.25,2.5 0,5 -2,2 -2,2 -4.5,2.25 -2.5,-0.25 -2.5,-0.25 -4.5,-2.25 -0.25,-2.5 -0.25,-2.5 0,-5 2,-2 2,-2 4.5,-2.25 z"
           fill="#771818"
           transform="translate(140.5,43.75)"
           id="path2981" /><path
           d="m 0,0 c 2.5,0.25 2.5,0.25 4.5,2.25 0.25,2.5 0.25,2.5 0,5 -2,2 -2,2 -4.5,2.25 -2.5,-0.25 -2.5,-0.25 -4.5,-2.25 -0.25,-2.5 -0.25,-2.5 0,-5 2,-2 2,-2 4.5,-2.25 z"
           fill="#03038d"
           transform="translate(113.5,43.75)"
           id="path2983" /><path
           d="m 0,0 c 2.5,0.25 2.5,0.25 4.5,2.25 0.25,2.5 0.25,2.5 0,5 -2,2 -2,2 -4.5,2.25 -2.5,-0.25 -2.5,-0.25 -4.5,-2.25 -0.25,-2.5 -0.25,-2.5 0,-5 2,-2 2,-2 4.5,-2.25 z"
           fill="#771818"
           transform="translate(56.5,43.75)"
           id="path2985" /><path
           d="m 0,0 c 2.5,0.25 2.5,0.25 4.5,2.25 0.25,2.5 0.25,2.5 0,5 -2,2 -2,2 -4.5,2.25 -2.5,-0.25 -2.5,-0.25 -4.5,-2.25 -0.25,-2.5 -0.25,-2.5 0,-5 2,-2 2,-2 4.5,-2.25 z"
           fill="#03038d"
           transform="translate(303.5,29.75)"
           id="path2987" /><path
           d="m 0,0 c 2.5,0.25 2.5,0.25 4.5,2.25 0.25,2.5 0.25,2.5 0,5 -2,2 -2,2 -4.5,2.25 -2.5,-0.25 -2.5,-0.25 -4.5,-2.25 -0.25,-2.5 -0.25,-2.5 0,-5 2,-2 2,-2 4.5,-2.25 z"
           fill="#771818"
           transform="translate(231.5,29.75)"
           id="path2989" /><path
           d="m 0,0 c 2.5,0.25 2.5,0.25 4.5,2.25 0.25,2.5 0.25,2.5 0,5 -2,2 -2,2 -4.5,2.25 -2.5,-0.25 -2.5,-0.25 -4.5,-2.25 -0.25,-2.5 -0.25,-2.5 0,-5 2,-2 2,-2 4.5,-2.25 z"
           fill="#03038d"
           transform="translate(201.5,29.75)"
           id="path2991" /><path
           d="m 0,0 c 2.5,0.25 2.5,0.25 4.5,2.25 0.25,2.5 0.25,2.5 0,5 -2,2 -2,2 -4.5,2.25 -2.5,-0.25 -2.5,-0.25 -4.5,-2.25 -0.25,-2.5 -0.25,-2.5 0,-5 2,-2 2,-2 4.5,-2.25 z"
           fill="#771818"
           transform="translate(149.5,29.75)"
           id="path2993" /><path
           d="m 0,0 c 2.5,0.25 2.5,0.25 4.5,2.25 0.25,2.5 0.25,2.5 0,5 -2,2 -2,2 -4.5,2.25 -2.5,-0.25 -2.5,-0.25 -4.5,-2.25 -0.25,-2.5 -0.25,-2.5 0,-5 2,-2 2,-2 4.5,-2.25 z"
           fill="#03038d"
           transform="translate(113.5,29.75)"
           id="path2995" /><path
           d="m 0,0 c 2.5,0.25 2.5,0.25 4.5,2.25 0.25,2.5 0.25,2.5 0,5 -2,2 -2,2 -4.5,2.25 -2.5,-0.25 -2.5,-0.25 -4.5,-2.25 -0.25,-2.5 -0.25,-2.5 0,-5 2,-2 2,-2 4.5,-2.25 z"
           fill="#771818"
           transform="translate(56.5,29.75)"
           id="path2997" /><path
           d="m 0,0 c 2.5,0.25 2.5,0.25 4.5,2.25 0.25,2.5 0.25,2.5 0,5 -2,2 -2,2 -4.5,2.25 -2.5,-0.25 -2.5,-0.25 -4.5,-2.25 -0.25,-2.5 -0.25,-2.5 0,-5 2,-2 2,-2 4.5,-2.25 z"
           fill="#03038d"
           transform="translate(303.5,15.75)"
           id="path2999" /><path
           d="m 0,0 c 2.5,0.25 2.5,0.25 4.5,2.25 0.25,2.5 0.25,2.5 0,5 -2,2 -2,2 -4.5,2.25 -2.5,-0.25 -2.5,-0.25 -4.5,-2.25 -0.25,-2.5 -0.25,-2.5 0,-5 2,-2 2,-2 4.5,-2.25 z"
           fill="#771818"
           transform="translate(231.5,15.75)"
           id="path3001" /><path
           d="m 0,0 c 2.5,0.25 2.5,0.25 4.5,2.25 0.25,2.5 0.25,2.5 0,5 -2,2 -2,2 -4.5,2.25 -2.5,-0.25 -2.5,-0.25 -4.5,-2.25 -0.25,-2.5 -0.25,-2.5 0,-5 2,-2 2,-2 4.5,-2.25 z"
           fill="#03038d"
           transform="translate(99.5,15.75)"
           id="path3003" /><path
           d="m 0,0 c 2.5,0.25 2.5,0.25 4.5,2.25 0.25,2.5 0.25,2.5 0,5 -2,2 -2,2 -4.5,2.25 -2.5,-0.25 -2.5,-0.25 -4.5,-2.25 -0.25,-2.5 -0.25,-2.5 0,-5 2,-2 2,-2 4.5,-2.25 z"
           fill="#771818"
           transform="translate(56.5,15.75)"
           id="path3005" /><path
           d="M 0,0 C 2.125,0.375 2.125,0.375 4,1 4.625,2.875 4.625,2.875 5,5 4.34,5.66 3.68,6.32 3,7 0.875,6.625 0.875,6.625 -1,6 -1.625,4.125 -1.625,4.125 -2,2 -1.34,1.34 -0.68,0.68 0,0 Z"
           fill="#0000f1"
           transform="translate(273,88)"
           id="path3007" /><path
           d="M 0,0 C 2.125,0.375 2.125,0.375 4,1 4.625,2.875 4.625,2.875 5,5 4.34,5.66 3.68,6.32 3,7 0.875,6.625 0.875,6.625 -1,6 -1.625,4.125 -1.625,4.125 -2,2 -1.34,1.34 -0.68,0.68 0,0 Z"
           fill="#ca2425"
           transform="translate(259,88)"
           id="path3009" /><path
           d="M 0,0 C 2.125,0.375 2.125,0.375 4,1 4.625,2.875 4.625,2.875 5,5 4.34,5.66 3.68,6.32 3,7 0.875,6.625 0.875,6.625 -1,6 -1.625,4.125 -1.625,4.125 -2,2 -1.34,1.34 -0.68,0.68 0,0 Z"
           fill="#0000f1"
           transform="translate(182,88)"
           id="path3011" /><path
           d="M 0,0 C 2.125,0.375 2.125,0.375 4,1 4.625,2.875 4.625,2.875 5,5 4.34,5.66 3.68,6.32 3,7 0.875,6.625 0.875,6.625 -1,6 -1.625,4.125 -1.625,4.125 -2,2 -1.34,1.34 -0.68,0.68 0,0 Z"
           fill="#0000f1"
           transform="translate(69,88)"
           id="path3013" /><path
           d="M 0,0 C 2.125,0.375 2.125,0.375 4,1 4.625,2.875 4.625,2.875 5,5 4.34,5.66 3.68,6.32 3,7 0.875,6.625 0.875,6.625 -1,6 -1.625,4.125 -1.625,4.125 -2,2 -1.34,1.34 -0.68,0.68 0,0 Z"
           fill="#ca2425"
           transform="translate(55,88)"
           id="path3015" /><path
           d="M 0,0 C 2.125,0.375 2.125,0.375 4,1 4.625,2.875 4.625,2.875 5,5 4.34,5.66 3.68,6.32 3,7 0.875,6.625 0.875,6.625 -1,6 -1.625,4.125 -1.625,4.125 -2,2 -1.34,1.34 -0.68,0.68 0,0 Z"
           fill="#0000f1"
           transform="translate(273,74)"
           id="path3017" /><path
           d="M 0,0 C 2.125,0.375 2.125,0.375 4,1 4.625,2.875 4.625,2.875 5,5 4.34,5.66 3.68,6.32 3,7 0.875,6.625 0.875,6.625 -1,6 -1.625,4.125 -1.625,4.125 -2,2 -1.34,1.34 -0.68,0.68 0,0 Z"
           fill="#ca2425"
           transform="translate(259,74)"
           id="path3019" /><path
           d="M 0,0 C 2.125,0.375 2.125,0.375 4,1 4.625,2.875 4.625,2.875 5,5 4.34,5.66 3.68,6.32 3,7 0.875,6.625 0.875,6.625 -1,6 -1.625,4.125 -1.625,4.125 -2,2 -1.34,1.34 -0.68,0.68 0,0 Z"
           fill="#0000f1"
           transform="translate(69,74)"
           id="path3021" /><path
           d="M 0,0 C 2.125,0.375 2.125,0.375 4,1 4.625,2.875 4.625,2.875 5,5 4.34,5.66 3.68,6.32 3,7 0.875,6.625 0.875,6.625 -1,6 -1.625,4.125 -1.625,4.125 -2,2 -1.34,1.34 -0.68,0.68 0,0 Z"
           fill="#ca2425"
           transform="translate(55,74)"
           id="path3023" /><path
           d="M 0,0 C 2.125,0.375 2.125,0.375 4,1 4.625,2.875 4.625,2.875 5,5 4.34,5.66 3.68,6.32 3,7 0.875,6.625 0.875,6.625 -1,6 -1.625,4.125 -1.625,4.125 -2,2 -1.34,1.34 -0.68,0.68 0,0 Z"
           fill="#0000f1"
           transform="translate(273,60)"
           id="path3025" /><path
           d="M 0,0 C 2.125,0.375 2.125,0.375 4,1 4.625,2.875 4.625,2.875 5,5 4.34,5.66 3.68,6.32 3,7 0.875,6.625 0.875,6.625 -1,6 -1.625,4.125 -1.625,4.125 -2,2 -1.34,1.34 -0.68,0.68 0,0 Z"
           fill="#ca2425"
           transform="translate(259,60)"
           id="path3027" /><path
           d="M 0,0 C 2.125,0.375 2.125,0.375 4,1 4.625,2.875 4.625,2.875 5,5 4.34,5.66 3.68,6.32 3,7 0.875,6.625 0.875,6.625 -1,6 -1.625,4.125 -1.625,4.125 -2,2 -1.34,1.34 -0.68,0.68 0,0 Z"
           fill="#0000f1"
           transform="translate(273,45)"
           id="path3029" /><path
           d="M 0,0 C 2.125,0.375 2.125,0.375 4,1 4.625,2.875 4.625,2.875 5,5 4.34,5.66 3.68,6.32 3,7 0.875,6.625 0.875,6.625 -1,6 -1.625,4.125 -1.625,4.125 -2,2 -1.34,1.34 -0.68,0.68 0,0 Z"
           fill="#ca2425"
           transform="translate(259,45)"
           id="path3031" /><path
           d="M 0,0 C 2.125,0.375 2.125,0.375 4,1 4.625,2.875 4.625,2.875 5,5 4.34,5.66 3.68,6.32 3,7 0.875,6.625 0.875,6.625 -1,6 -1.625,4.125 -1.625,4.125 -2,2 -1.34,1.34 -0.68,0.68 0,0 Z"
           fill="#0000f1"
           transform="translate(182,17)"
           id="path3033" /><path
           d="M 0,0 C 2.64,0 5.28,0 8,0 8,1.32 8,2.64 8,4 5.36,4 2.72,4 0,4 0,2.68 0,1.36 0,0 Z"
           fill="#606060"
           transform="translate(171,89)"
           id="path3035" /><path
           d="M 0,0 C 2.64,0 5.28,0 8,0 8,1.32 8,2.64 8,4 5.36,4 2.72,4 0,4 0,2.68 0,1.36 0,0 Z"
           fill="#606060"
           transform="translate(171,18)"
           id="path3037" /><path
           d="M 0,0 C 1.65,0 3.3,0 5,0 5,1.32 5,2.64 5,4 3.35,4 1.7,4 0,4 0,2.68 0,1.36 0,0 Z"
           fill="#5d5d5d"
           transform="translate(265,89)"
           id="path3039" /><path
           d="M 0,0 C 1.65,0 3.3,0 5,0 5,1.32 5,2.64 5,4 3.35,4 1.7,4 0,4 0,2.68 0,1.36 0,0 Z"
           fill="#5d5d5d"
           transform="translate(61,89)"
           id="path3041" /><path
           d="M 0,0 C 1.65,0 3.3,0 5,0 5,1.32 5,2.64 5,4 3.35,4 1.7,4 0,4 0,2.68 0,1.36 0,0 Z"
           fill="#5d5d5d"
           transform="translate(265,75)"
           id="path3043" /><path
           d="M 0,0 C 1.65,0 3.3,0 5,0 5,1.32 5,2.64 5,4 3.35,4 1.7,4 0,4 0,2.68 0,1.36 0,0 Z"
           fill="#5d5d5d"
           transform="translate(61,75)"
           id="path3045" /><path
           d="M 0,0 C 1.65,0 3.3,0 5,0 5,1.32 5,2.64 5,4 3.35,4 1.7,4 0,4 0,2.68 0,1.36 0,0 Z"
           fill="#5d5d5d"
           transform="translate(265,61)"
           id="path3047" /><path
           d="M 0,0 C 1.65,0 3.3,0 5,0 5,1.32 5,2.64 5,4 3.35,4 1.7,4 0,4 0,2.68 0,1.36 0,0 Z"
           fill="#5d5d5d"
           transform="translate(265,46)"
           id="path3049" /></g></g></g></svg>
