<?xml version="1.0" encoding="UTF-8" standalone="no"?>
<!-- Created with Inkscape (http://www.inkscape.org/) -->

<svg
   width="152.14578mm"
   height="185.24519mm"
   viewBox="0 0 152.14578 185.24519"
   version="1.1"
   id="svg5"
   xml:space="preserve"
   xmlns:inkscape="http://www.inkscape.org/namespaces/inkscape"
   xmlns:sodipodi="http://sodipodi.sourceforge.net/DTD/sodipodi-0.dtd"
   xmlns="http://www.w3.org/2000/svg"
   xmlns:svg="http://www.w3.org/2000/svg"><sodipodi:namedview
     id="namedview7"
     pagecolor="#ffffff"
     bordercolor="#000000"
     borderopacity="0.25"
     inkscape:showpageshadow="2"
     inkscape:pageopacity="0.0"
     inkscape:pagecheckerboard="0"
     inkscape:deskcolor="#d1d1d1"
     inkscape:document-units="mm"
     showgrid="false" /><defs
     id="defs2"><style
       id="style339">.cls-1{fill:#4d77cf;}.cls-2{fill:#4dabcf;}</style></defs><g
     inkscape:label="Layer 1"
     inkscape:groupmode="layer"
     id="layer1"
     transform="translate(-40.886701,-51.843199)"><path
       d="m 177.88143,198.77667 -82.490474,24.59302 a 3.4726562,3.4726562 0 0 1 -4.41193,-4.00843 L 120.45361,77.074954 a 2.8442708,2.8442708 0 0 1 5.3512,-0.62177 l 54.5637,116.820156 a 3.96875,3.96875 0 0 1 -2.48708,5.50333 z m 14.14859,-5.8076 -63.16266,-135.261616 v 0 a 10.126927,10.126927 0 0 0 -8.65849,-5.84067 10.007865,10.007865 0 0 0 -9.26041,4.82203 L 42.454446,168.60094 a 10.530417,10.530417 0 0 0 0.11906,11.24479 l 33.49625,52.31474 a 10.768542,10.768542 0 0 0 12.10469,4.48469 l 97.234374,-28.99172 a 10.583333,10.583333 0 0 0 6.61458,-14.67114 z"
       style="fill:#d2d2d2;fill-rule:evenodd;stroke-width:6.61458"
       id="path4597" /></g><style
     type="text/css"
     id="style4463">
	.st0{fill:#F9A01B;}
	.st1{fill:#F58020;}
	.st2{fill:#FFCB2A;}
</style></svg>
