<?xml version="1.0" encoding="UTF-8" standalone="no"?>
<!-- Created with Inkscape (http://www.inkscape.org/) -->

<svg
   width="142.81688mm"
   height="76.997536mm"
   viewBox="0 0 142.81688 76.997536"
   version="1.1"
   id="svg5"
   xml:space="preserve"
   xmlns:inkscape="http://www.inkscape.org/namespaces/inkscape"
   xmlns:sodipodi="http://sodipodi.sourceforge.net/DTD/sodipodi-0.dtd"
   xmlns="http://www.w3.org/2000/svg"
   xmlns:svg="http://www.w3.org/2000/svg"><sodipodi:namedview
     id="namedview7"
     pagecolor="#ffffff"
     bordercolor="#000000"
     borderopacity="0.25"
     inkscape:showpageshadow="2"
     inkscape:pageopacity="0.0"
     inkscape:pagecheckerboard="0"
     inkscape:deskcolor="#d1d1d1"
     inkscape:document-units="mm"
     showgrid="false" /><defs
     id="defs2" /><g
     inkscape:label="Layer 1"
     inkscape:groupmode="layer"
     id="layer1"
     transform="translate(-29.93319,-99.364705)"><g
       id="g75"
       transform="matrix(1.1159603,0,0,1.1159603,29.929455,66.443961)"><path
         fill="#f89939"
         d="m 98.18,88.13 c 15.63,-15.62 18.23,-38.36 5.8,-50.78 -12.43,-12.42 -35.17,-9.82 -50.8,5.8 -15.63,15.62 -11.11,45.48 -5.8,50.78 4.29,4.29 35.17,9.82 50.8,-5.8 z"
         id="path57" /><path
         fill="#3499cd"
         d="M 34.04,65.56 C 24.97,56.5 11.77,54.99 4.56,62.19 c -7.21,7.21 -5.7,20.4 3.37,29.46 9.07,9.07 26.4,6.44 29.48,3.37 2.49,-2.49 5.71,-20.4 -3.37,-29.46 z"
         id="path59" /><path
         fill="#010101"
         d="m 123.82,85.68 c -0.58,0 -0.87,-0.35 -0.87,-1.06 0,-0.53 0.35,-1.69 1.04,-3.46 1.01,-2.59 1.52,-4.45 1.52,-5.58 0,-0.68 -0.2,-1.25 -0.6,-1.7 -0.4,-0.45 -0.9,-0.68 -1.5,-0.68 -0.88,0 -1.89,0.41 -3.03,1.24 -1.14,0.83 -2.67,2.32 -4.6,4.48 0.28,-1.4 0.88,-3.32 1.78,-5.76 l -4.31,0.83 c -0.98,2.12 -1.69,4.03 -2.13,5.73 -0.22,0.83 -0.38,1.69 -0.49,2.56 -1.35,1.31 -2.23,2.1 -2.61,2.39 -0.39,0.29 -0.8,0.43 -1.22,0.43 -0.39,0 -0.7,-0.15 -0.93,-0.44 -0.23,-0.29 -0.34,-0.69 -0.34,-1.18 0,-0.53 0.1,-1.14 0.3,-1.83 0.2,-0.69 0.64,-1.99 1.33,-3.9 l 1.64,-4.52 -1.61,0.07 c -1.46,2.78 -3.17,4.28 -5.13,4.49 0.53,-1.38 0.8,-2.44 0.8,-3.18 0,-0.94 -0.46,-1.41 -1.38,-1.41 -1.09,0 -1.94,0.51 -2.55,1.54 -0.62,1.03 -0.93,2 -0.93,2.91 0,0.91 0.51,1.55 1.52,2 -0.66,0.97 -1.4,1.88 -2.2,2.74 -0.95,0.94 -1.69,1.66 -2.23,2.13 -0.55,0.49 -1.06,0.73 -1.52,0.73 -0.72,0 -1.08,-0.51 -1.08,-1.52 0,-1.01 0.4,-2.75 1.2,-5.35 l 1.56,-5.18 h -0.99 l -3.61,2 c -0.59,-1.35 -1.62,-2.03 -3.09,-2.03 -1.17,0 -2.51,0.5 -4.03,1.49 -1.52,0.99 -2.77,2.28 -3.74,3.89 -0.75,1.24 -1.21,2.54 -1.38,3.88 -1.36,1.36 -2.38,2.24 -3.06,2.65 -0.71,0.42 -1.45,0.63 -2.23,0.63 -1.99,0 -3.22,-1.15 -3.69,-3.45 5.19,-1.52 7.78,-3.5 7.78,-5.94 0,-0.92 -0.33,-1.66 -0.99,-2.23 -0.66,-0.57 -1.54,-0.85 -2.63,-0.85 -2.11,0 -4.03,1.01 -5.76,3.03 -1.57,1.83 -2.42,3.86 -2.57,6.09 -1.43,1.41 -2.51,2.34 -3.21,2.79 -0.72,0.46 -1.4,0.69 -2.03,0.69 -0.63,0 -1.13,-0.3 -1.5,-0.9 -0.38,-0.6 -0.57,-1.41 -0.57,-2.44 0,-0.46 0.05,-1.3 0.14,-2.53 2.36,-2.56 4.09,-4.96 5.2,-7.21 1.11,-2.25 1.66,-4.58 1.66,-6.98 0,-0.85 -0.11,-1.52 -0.33,-2.02 -0.22,-0.5 -0.5,-0.75 -0.84,-0.75 -0.07,0 -0.18,0.02 -0.32,0.07 l -4.49,1.66 c -1.53,2.92 -2.84,6.11 -3.91,9.58 -1.07,3.46 -1.61,6.43 -1.61,8.9 0,1.65 0.38,2.96 1.16,3.94 0.77,0.98 1.79,1.47 3.05,1.47 1.1,0 2.25,-0.35 3.46,-1.05 1.21,-0.7 2.61,-1.79 4.22,-3.26 1.61,-1.47 0,-0.02 0,-0.02 0.19,1.11 0.65,2.04 1.37,2.8 0.99,1.02 2.28,1.54 3.88,1.54 1.44,0 2.75,-0.35 3.94,-1.05 1.15,-0.67 2.44,-1.72 3.88,-3.11 0.12,1.04 0.46,1.94 1.03,2.71 0.73,0.97 1.61,1.46 2.64,1.46 1.03,0 2.09,-0.4 3.09,-1.2 1,-0.8 2.08,-2.05 3.26,-3.73 -0.11,3.29 0.77,4.93 2.63,4.93 0.74,0 1.52,-0.27 2.33,-0.81 0.81,-0.54 2.16,-1.71 4.05,-3.5 1.64,-1.62 2.84,-3.14 3.61,-4.56 1.04,-0.18 1.99,-0.49 2.86,-0.94 -1.78,2.79 -2.67,5.02 -2.67,6.68 0,0.9 0.25,1.65 0.74,2.25 0.49,0.6 1.1,0.91 1.82,0.91 1.57,0 3.8,-1.41 6.68,-4.2 0,0.22 -0.02,0.43 -0.02,0.65 0,0.78 0.07,1.96 0.19,3.55 l 3.91,-0.92 c 0,-1.06 0.02,-1.9 0.05,-2.53 0.06,-0.84 0.18,-1.76 0.35,-2.76 0.11,-0.59 0.38,-1.15 0.81,-1.68 l 0.99,-1.15 c 0.36,-0.42 0.71,-0.8 1.02,-1.13 0.37,-0.39 0.7,-0.72 0.99,-0.99 0.33,-0.29 0.62,-0.53 0.87,-0.69 0.27,-0.16 0.49,-0.25 0.65,-0.25 0.29,0 0.44,0.19 0.44,0.57 0,0.38 -0.28,1.26 -0.83,2.65 -1.04,2.59 -1.56,4.52 -1.56,5.78 0,0.93 0.24,1.67 0.73,2.23 0.48,0.55 1.12,0.83 1.91,0.83 1.94,0 4.28,-1.44 7,-4.31 V 82.3 c -1.93,2.27 -3.32,3.41 -4.18,3.41 z M 58.56,77.39 c 0.8,-3.91 1.62,-6.94 2.45,-9.11 0.83,-2.17 1.47,-3.26 1.9,-3.26 0.2,0 0.37,0.13 0.5,0.4 0.13,0.26 0.19,0.62 0.19,1.05 0,1.49 -0.46,3.26 -1.4,5.33 -0.93,2.06 -2.15,3.93 -3.64,5.59 z m 11.79,-0.98 c 0.71,-1.19 1.45,-1.78 2.23,-1.78 0.82,0 1.24,0.57 1.24,1.7 0,2.29 -1.51,3.85 -4.53,4.7 0,-1.9 0.35,-3.44 1.06,-4.62 z m 17.48,5.85 c -1.04,2.01 -2.16,3.01 -3.33,3.01 -0.48,0 -0.88,-0.2 -1.19,-0.59 -0.31,-0.39 -0.47,-0.91 -0.47,-1.55 0,-1.68 0.53,-3.53 1.58,-5.53 1.05,-2 2.17,-3 3.35,-3 0.49,0 0.89,0.18 1.18,0.56 0.29,0.37 0.44,0.89 0.44,1.55 0,1.7 -0.52,3.55 -1.56,5.56 z"
         id="path61" /><path
         fill="#ffffff"
         d="m 75.46,64.88 c 0.15,0.21 0.22,0.48 0.22,0.8 0,0.32 -0.09,0.61 -0.27,0.88 -0.18,0.27 -0.44,0.49 -0.79,0.64 -0.34,0.15 -0.73,0.23 -1.16,0.23 -0.72,0 -1.26,-0.15 -1.64,-0.45 -0.38,-0.3 -0.62,-0.74 -0.72,-1.33 l 0.93,-0.15 c 0.05,0.37 0.2,0.66 0.43,0.85 0.24,0.2 0.57,0.3 1,0.3 0.43,0 0.75,-0.09 0.96,-0.26 0.21,-0.17 0.31,-0.38 0.31,-0.62 0,-0.21 -0.09,-0.38 -0.28,-0.5 C 74.32,65.19 74,65.08 73.49,64.95 72.8,64.78 72.33,64.63 72.06,64.5 c -0.27,-0.13 -0.47,-0.3 -0.6,-0.53 -0.13,-0.23 -0.21,-0.47 -0.21,-0.74 0,-0.25 0.06,-0.47 0.17,-0.68 0.11,-0.21 0.27,-0.38 0.46,-0.52 0.15,-0.11 0.34,-0.2 0.59,-0.27 0.25,-0.07 0.52,-0.11 0.81,-0.11 0.43,0 0.81,0.06 1.14,0.19 0.33,0.12 0.57,0.29 0.73,0.51 0.16,0.21 0.26,0.5 0.32,0.86 l -0.92,0.12 c -0.04,-0.28 -0.16,-0.51 -0.36,-0.67 -0.2,-0.16 -0.48,-0.24 -0.85,-0.24 -0.43,0 -0.74,0.07 -0.92,0.21 -0.18,0.14 -0.28,0.31 -0.28,0.5 0,0.12 0.04,0.23 0.11,0.33 0.08,0.1 0.2,0.18 0.36,0.25 0.09,0.03 0.37,0.11 0.83,0.24 0.66,0.18 1.12,0.32 1.39,0.43 0.26,0.11 0.47,0.28 0.62,0.49 z m 4.47,1.44 c -0.25,0.23 -0.55,0.34 -0.92,0.34 -0.46,0 -0.83,-0.17 -1.11,-0.5 -0.28,-0.33 -0.43,-0.88 -0.43,-1.62 0,-0.74 0.15,-1.27 0.44,-1.6 0.29,-0.33 0.68,-0.51 1.15,-0.51 0.31,0 0.58,0.09 0.8,0.28 0.22,0.19 0.37,0.47 0.46,0.84 l 0.91,-0.14 c -0.11,-0.56 -0.35,-0.99 -0.73,-1.29 -0.38,-0.3 -0.87,-0.45 -1.47,-0.45 -0.48,0 -0.91,0.11 -1.32,0.34 -0.4,0.22 -0.71,0.56 -0.9,1.01 -0.2,0.45 -0.3,0.97 -0.3,1.57 0,0.92 0.23,1.63 0.69,2.12 0.46,0.49 1.07,0.74 1.82,0.74 0.6,0 1.11,-0.18 1.53,-0.54 0.41,-0.36 0.67,-0.86 0.77,-1.49 L 80.4,65.3 c -0.07,0.47 -0.22,0.81 -0.47,1.04 z m 2.19,0.98 h 0.94 v -5.52 h -0.94 z m 0,-6.55 h 0.94 v -1.08 h -0.94 z m 6.73,1.02 h -1.21 l -2.22,2.25 v -4.35 h -0.94 v 7.62 h 0.94 V 65.1 l 0.66,-0.63 1.83,2.82 h 1.16 l -2.33,-3.47 z m 0.96,-1.02 h 0.94 v -1.08 h -0.94 z m 0,6.55 h 0.94 v -5.52 h -0.94 z m 4.41,-0.84 c -0.17,0.02 -0.31,0.04 -0.41,0.04 -0.14,0 -0.25,-0.02 -0.32,-0.07 C 93.42,66.38 93.36,66.32 93.33,66.25 93.3,66.17 93.28,66 93.28,65.74 v -3.23 h 0.94 v -0.73 h -0.94 v -1.93 l -0.93,0.56 v 1.37 h -0.69 v 0.73 h 0.69 v 3.18 c 0,0.56 0.04,0.93 0.11,1.1 0.08,0.18 0.21,0.32 0.39,0.42 0.19,0.11 0.45,0.16 0.79,0.16 0.21,0 0.44,-0.03 0.71,-0.08 l -0.14,-0.83 z"
         id="path63" /></g></g></svg>
