<svg width="23" height="20" viewBox="0 0 23 20" fill="none" xmlns="http://www.w3.org/2000/svg">
<path d="M21.622 17.9269C21.9906 17.2706 22.0956 16.5033 21.9162 15.7753C21.8648 15.574 21.7937 15.3781 21.704 15.1902C21.6756 15.1285 21.6434 15.0686 21.6075 15.0109L18.6845 9.60815H15.694L18.7521 15.2704C18.8481 15.435 18.8986 15.6212 18.8986 15.8107C18.8986 16.0002 18.8481 16.1864 18.7521 16.3509C18.6585 16.5047 18.5258 16.6321 18.3668 16.7206C18.2079 16.8091 18.0282 16.8557 17.8453 16.8558H14.358C14.3194 17.383 14.1521 17.8933 13.87 18.3441C13.588 18.7949 13.1996 19.1728 12.7373 19.4463H19.1476C19.5755 19.4185 19.9921 19.2993 20.3679 19.0971C20.8983 18.8415 21.336 18.4332 21.622 17.9269Z" fill="#00E3AA"/>
<path d="M5.22705 6.07395H8.21755L9.70798 3.3608C9.83408 3.12664 10.0231 2.93061 10.2548 2.79387C10.4864 2.65712 10.7518 2.58485 11.0224 2.58485C11.2929 2.58485 11.5583 2.65712 11.7899 2.79387C12.0216 2.93061 12.2106 3.12664 12.3367 3.3608L13.7837 6.07395H16.7742L14.652 2.14813C14.3001 1.4995 13.7743 0.956845 13.131 0.578398C12.4877 0.199952 11.7513 0 11.0006 0C10.25 0 9.51355 0.199952 8.87028 0.578398C8.22701 0.956845 7.70123 1.4995 7.34934 2.14813L5.22705 6.07395Z" fill="#00E3AA"/>
<path d="M7.63916 9.13637C7.67052 8.6114 7.83122 8.10164 8.10754 7.65057C8.38386 7.19949 8.76761 6.82049 9.22606 6.5459H3.43799V9.13637H7.63916Z" fill="#00E3AA"/>
<path d="M8.11621 9.32512V16.4029H9.47641C9.76008 16.3998 10.0349 16.3059 10.2588 16.1354C10.4827 15.965 10.6433 15.7275 10.716 15.4592C10.7453 15.3563 10.7599 15.2499 10.7594 15.1431V10.8964C10.7607 10.4354 10.9478 9.99344 11.2801 9.66657C11.6125 9.33969 12.0632 9.15426 12.5344 9.15053H18.5878V6.5459H10.9524C10.1997 6.54715 9.47835 6.84051 8.94661 7.36158C8.41486 7.88265 8.11621 8.58884 8.11621 9.32512Z" fill="#00E3AA"/>
<path d="M0.297648 15.1903C0.207905 15.3782 0.136835 15.5741 0.0854186 15.7754C-0.0937628 16.5049 0.0111247 17.2737 0.379645 17.9317C0.666441 18.4362 1.10402 18.8429 1.63373 19.0972C2.00956 19.2994 2.42609 19.4185 2.85404 19.4464H11.0008C11.7683 19.4464 12.5044 19.1481 13.0471 18.6172C13.5899 18.0862 13.8948 17.3661 13.8948 16.6153V9.60352H12.5153C12.1762 9.61208 11.8537 9.74929 11.6161 9.98614C11.3785 10.223 11.2443 10.5409 11.2419 10.8728V15.1195C11.2406 15.5804 11.0526 16.0221 10.7189 16.3476C10.3853 16.6731 9.9333 16.8559 9.46209 16.8559H4.18048C3.99758 16.8557 3.81786 16.8091 3.65891 16.7206C3.49996 16.6321 3.36722 16.5048 3.27368 16.351C3.17771 16.1856 3.12725 15.9986 3.12725 15.8084C3.12725 15.6182 3.17771 15.4312 3.27368 15.2658L6.33171 9.60352H3.31709L0.394116 15.0062C0.360352 15.0723 0.326588 15.1289 0.297648 15.1903Z" fill="#00E3AA"/>
</svg>
