<?xml version="1.0" encoding="UTF-8"?>
<svg version="1.1" xmlns="http://www.w3.org/2000/svg" width="286" height="72">
<path d="M0 0 C2.44442567 2.44442567 2.41280116 3.5605528 2.75 6.9375 C2.89695312 8.25041016 2.89695312 8.25041016 3.046875 9.58984375 C3 12 3 12 1 15 C2.03125 15.103125 3.0625 15.20625 4.125 15.3125 C8.69887897 16.12399466 12.28695905 16.85353905 15.296875 20.625 C18.53985681 26.13362664 18.30297987 30.87806283 17 37 C16.35747635 39.0078864 15.69258229 41.00882592 15 43 C14.90203125 44.20914063 14.8040625 45.41828125 14.703125 46.6640625 C14.1340554 51.49343417 12.18669799 55.10209339 9.75 59.25 C9.36714844 59.94351563 8.98429687 60.63703125 8.58984375 61.3515625 C6.25738322 65.42361734 4.06663945 68.46231547 0 71 C-2.45703125 71.609375 -2.45703125 71.609375 -4.8125 71.75 C-5.60269531 71.80671875 -6.39289062 71.8634375 -7.20703125 71.921875 C-7.79871094 71.94765625 -8.39039063 71.9734375 -9 72 C-9.2165625 71.25105469 -9.433125 70.50210938 -9.65625 69.73046875 C-11.3637168 66.26093593 -13.18878458 65.25130377 -16.5 63.3125 C-21.8802589 60.1197411 -21.8802589 60.1197411 -24 58 C-25.25356794 57.49635902 -26.52771122 57.04261777 -27.8125 56.625 C-32.92130921 54.74961434 -36.40746034 52.3639053 -39.3125 47.6875 C-42.55212412 40.52833065 -42.22957005 32.08255681 -40 24.6796875 C-34.96966219 13.50433474 -26.12189272 6.61956452 -15 2 C-13.989375 1.566875 -12.97875 1.13375 -11.9375 0.6875 C-7.98737414 -0.23699754 -4.03488196 -0.54874395 0 0 Z " fill="#D9EEF1" transform="translate(41,0)"/>
<path d="M0 0 C-0.33 0.99 -0.66 1.98 -1 3 C-3.3359375 3.703125 -3.3359375 3.703125 -6.375 4.25 C-15.87952312 6.43377734 -23.33107033 11.02241998 -28.87890625 19.10546875 C-29.24886719 19.73066406 -29.61882813 20.35585938 -30 21 C-30.56074219 21.94166016 -30.56074219 21.94166016 -31.1328125 22.90234375 C-33.28684699 28.11277853 -32.60056457 34.3184192 -30.75 39.5 C-28.96414658 42.05121918 -27.63038521 43.37122055 -25 45 C-22.61671164 45.3979426 -22.61671164 45.3979426 -20.125 45.25 C-19.25359375 45.22421875 -18.3821875 45.1984375 -17.484375 45.171875 C-14.60944517 44.97298048 -11.82021138 44.59372871 -9 44 C-8.67 44.99 -8.34 45.98 -8 47 C-8.33 47.66 -8.66 48.32 -9 49 C-12.0625 49.625 -12.0625 49.625 -15 50 C-15 50.66 -15 51.32 -15 52 C-10.545 51.505 -10.545 51.505 -6 51 C-6 51.99 -6 52.98 -6 54 C-4.35 54.33 -2.7 54.66 -1 55 C-2 58 -2 58 -4 59 C-2.68 59 -1.36 59 0 59 C2.13496094 56.7068938 3.00215582 54.99353253 4 52 C4.66 52 5.32 52 6 52 C6.185625 50.8553125 6.185625 50.8553125 6.375 49.6875 C7 47 7 47 9 44 C9 43.01 9 42.02 9 41 C8.0925 41.804375 7.185 42.60875 6.25 43.4375 C3.89690092 45.41142671 2.13061954 46.63877467 -1 47 C-0.62925452 44.41031516 -0.33803075 43.28156337 1.70703125 41.578125 C2.40183594 41.13984375 3.09664062 40.7015625 3.8125 40.25 C8.12396376 37.2157203 10.29864063 33.96976027 12 29 C12 28.34 12 27.68 12 27 C11.071875 28.485 11.071875 28.485 10.125 30 C9.073125 31.485 9.073125 31.485 8 33 C7.34 33 6.68 33 6 33 C6.61277612 30.03824877 7.25372522 28.61941217 9 26 C8.91778291 22.92334973 8.91778291 22.92334973 8 20 C4.57905758 17.71937172 3.31812778 17.78074993 -0.6875 17.875 C-1.68136719 17.89304687 -2.67523438 17.91109375 -3.69921875 17.9296875 C-4.45847656 17.95289062 -5.21773437 17.97609375 -6 18 C-6 18.66 -6 19.32 -6 20 C-5.01 20.33 -4.02 20.66 -3 21 C-2.50594862 25.1500316 -2.81097215 26.71915862 -5.1875 30.25 C-7.93150916 32.93303118 -9.29603567 34.20629336 -13 35 C-16.84745542 34.86500156 -19.22093737 34.51937508 -22.4375 32.375 C-24.69968197 28.9364834 -24.68622007 27.0486984 -24 23 C-20.41845319 16.07768263 -13.03813312 12.58601661 -6 10 C-3.12890625 9.83984375 -3.12890625 9.83984375 -1 10 C-1 10.66 -1 11.32 -1 12 C-2.42892578 12.67095703 -2.42892578 12.67095703 -3.88671875 13.35546875 C-5.15390985 13.9655978 -6.42082228 14.57630585 -7.6875 15.1875 C-8.62625977 15.62545898 -8.62625977 15.62545898 -9.58398438 16.07226562 C-13.80359029 18.12683814 -16.91876871 20.35854484 -20 24 C-20.41986946 26.71163778 -20.41986946 26.71163778 -20 29 C-19.67 27.96875 -19.34 26.9375 -19 25.875 C-16.91801484 21.07865101 -13.52048042 18.47287605 -9 16 C-3.20603624 13.79950505 1.99725857 13.62232164 8 15 C11.9919669 17.14383407 14.37699658 18.75700535 16 23 C16.046875 25.21875 16.046875 25.21875 15.75 27.5 C15.66234375 28.2528125 15.5746875 29.005625 15.484375 29.78125 C15 32 15 32 13.984375 33.9296875 C12.37547884 37.31347705 12.54192229 40.84314929 12.34375 44.5390625 C12 47 12 47 10 49 C9.731875 49.70125 9.46375 50.4025 9.1875 51.125 C7.05943558 56.27715596 4.17621844 62.41189078 -1 65 C-3.5625 65.5 -3.5625 65.5 -6 65 C-6.44085938 64.23042969 -6.88171875 63.46085937 -7.3359375 62.66796875 C-9.25665717 59.58850505 -10.90935297 58.54464115 -14.0625 56.8125 C-18.85430464 54.14569536 -18.85430464 54.14569536 -21 52 C-22.216875 51.62875 -23.43375 51.2575 -24.6875 50.875 C-29.86080728 49.0435737 -32.91912561 45.42931506 -36 41 C-38.15572907 34.5328128 -37.78307595 27.14100563 -35.03125 20.8984375 C-29.2720113 10.29620261 -20.48775444 3.53761974 -9 0 C-5.56630904 -0.81417415 -3.37774492 -1.12591497 0 0 Z " fill="#90C3DC" transform="translate(40,4)"/>
<path d="M0 0 C2.44442567 2.44442567 2.41280116 3.5605528 2.75 6.9375 C2.89695312 8.25041016 2.89695312 8.25041016 3.046875 9.58984375 C3 12 3 12 1 15 C2.03125 15.103125 3.0625 15.20625 4.125 15.3125 C8.69887897 16.12399466 12.28695905 16.85353905 15.296875 20.625 C18.53985681 26.13362664 18.30297987 30.87806283 17 37 C16.35747635 39.0078864 15.69258229 41.00882592 15 43 C14.90203125 44.20914063 14.8040625 45.41828125 14.703125 46.6640625 C14.1340554 51.49343417 12.18669799 55.10209339 9.75 59.25 C9.36714844 59.94351563 8.98429687 60.63703125 8.58984375 61.3515625 C6.25738322 65.42361734 4.06663945 68.46231547 0 71 C-2.45703125 71.609375 -2.45703125 71.609375 -4.8125 71.75 C-5.60269531 71.80671875 -6.39289062 71.8634375 -7.20703125 71.921875 C-7.79871094 71.94765625 -8.39039063 71.9734375 -9 72 C-9.2165625 71.25105469 -9.433125 70.50210938 -9.65625 69.73046875 C-11.3637168 66.26093593 -13.18878458 65.25130377 -16.5 63.3125 C-21.8802589 60.1197411 -21.8802589 60.1197411 -24 58 C-25.25356794 57.49635902 -26.52771122 57.04261777 -27.8125 56.625 C-32.92130921 54.74961434 -36.40746034 52.3639053 -39.3125 47.6875 C-42.55212412 40.52833065 -42.22957005 32.08255681 -40 24.6796875 C-34.96966219 13.50433474 -26.12189272 6.61956452 -15 2 C-13.989375 1.566875 -12.97875 1.13375 -11.9375 0.6875 C-7.98737414 -0.23699754 -4.03488196 -0.54874395 0 0 Z M-29.84375 15.796875 C-36.29418971 22.94295036 -38.34521909 29.85682033 -38.20703125 39.31640625 C-37.79556833 44.64989735 -35.56090074 47.67633303 -31.75 51.1875 C-28.40712465 53.89397021 -24.97801534 55.35392468 -21 57 C-17.91757223 58.8839966 -14.94547903 60.90930879 -12 63 C-11.27167969 63.495 -10.54335938 63.99 -9.79296875 64.5 C-8 66 -8 66 -7 69 C-3.27413242 69.5479217 -2.05540443 69.03767501 1.125 66.875 C3.99365101 64.27047031 5.46814139 61.57433676 7 58 C9.88888889 52.11111111 9.88888889 52.11111111 11 51 C11.1593349 49.29452641 11.27714669 47.58510307 11.375 45.875 C11.65587276 42.3157436 12.01801787 39.41423497 13.5625 36.1875 C15.13957708 32.690503 15.56324625 30.78179628 15 27 C13.13351409 23.03371745 11.28846526 20.80843285 7.3125 19.0625 C1.3300928 17.183268 -3.86987208 18.27792274 -9.6875 20.25 C-14.5750237 22.83208799 -18.17344221 25.00874714 -20.375 30.3125 C-20.684375 31.6428125 -20.684375 31.6428125 -21 33 C-21.3125 30.8125 -21.3125 30.8125 -21 28 C-17.40212338 23.74796399 -13.62743602 21.49212515 -8.6875 19.1875 C-8.04232422 18.87619141 -7.39714844 18.56488281 -6.73242188 18.24414062 C-5.15940656 17.48676288 -3.58030874 16.74203942 -2 16 C-2 15.34 -2 14.68 -2 14 C-9.82690523 14.28988538 -15.9989277 17.1998948 -21.7109375 22.625 C-23.76717844 25.00215715 -25.00245897 27.00737692 -26 30 C-25.48970696 25.53493594 -24.01922373 23.29095387 -21 20 C-14.48042851 15.69673787 -7.70932915 12.36046985 0 11 C0 10.34 0 9.68 0 9 C-5.53766082 8.6317668 -9.31682733 9.66098395 -14.125 12.25 C-14.71925781 12.55035156 -15.31351563 12.85070313 -15.92578125 13.16015625 C-22.78924919 16.72067494 -26.59504939 20.19009879 -30 27 C-30 27.66 -30 28.32 -30 29 C-30.66 29 -31.32 29 -32 29 C-30.1574666 21.44561307 -25.76515022 16.90051558 -19.375 12.75 C-13.88119856 9.6178632 -8.16855715 8.20827408 -2 7 C-2 5.68 -2 4.36 -2 3 C-12.61449107 3 -22.42312427 8.56490924 -29.84375 15.796875 Z " fill="#E0F1F3" transform="translate(41,0)"/>
<path d="M0 0 C2.97 0 5.94 0 9 0 C9.02464455 6.24796254 9.04283343 12.49589703 9.05493164 18.74389648 C9.05997298 20.87118014 9.06680591 22.99846031 9.07543945 25.12573242 C9.08751379 28.17627826 9.09323014 31.22677845 9.09765625 34.27734375 C9.10281754 35.23462875 9.10797882 36.19191376 9.11329651 37.1782074 C9.11340981 38.49946373 9.11340981 38.49946373 9.11352539 39.84741211 C9.115746 40.62684677 9.11796661 41.40628143 9.12025452 42.20933533 C9 44 9 44 8 45 C5.66253478 44.69699525 3.32914823 44.36141955 1 44 C-1.9254644 43.7763932 -1.9254644 43.7763932 -4 45 C-9.25279338 45.34444547 -12.82634624 45.57741751 -17 42 C-21.20811838 36.48591384 -20.74060808 29.60912207 -20 23 C-18.61471915 18.56574315 -16.9471596 15.63143973 -13 13 C-10.58984375 12.76953125 -10.58984375 12.76953125 -7.9375 12.8125 C-6.62072266 12.82216797 -6.62072266 12.82216797 -5.27734375 12.83203125 C-3 13 -3 13 -1 14 C-0.67 9.38 -0.34 4.76 0 0 Z M-9.72265625 21.6875 C-11.90060834 25.63045914 -11.69078388 29.62261164 -11 34 C-9.20808542 36.63516042 -9.20808542 36.63516042 -7 38 C-4.08482708 36.92598892 -2.22189824 36.22189824 0 34 C0.69037681 29.39213617 0.87107269 25.30660904 -1.75 21.375 C-4.83296601 19.49096521 -7.01872763 19.0387536 -9.72265625 21.6875 Z " fill="#4D8CBF" transform="translate(240,24)"/>
<path d="M0 0 C3.65511668 1.44944282 5.17024483 2.48546546 7.05078125 5.91796875 C9.35031613 11.64148067 9.4806213 17.03694983 8 23 C6.21085806 26.6445484 4.69583508 28.49085238 1.4375 30.875 C-4.73006223 32.89347491 -10.56620118 33.12997802 -16.5 30.375 C-21.12208463 25.9840196 -22.19500269 22.32831756 -22.4375 16.0625 C-22.2852615 10.48503491 -21.45081322 7.38346545 -18 3 C-12.39473316 -1.14047585 -6.70238663 -0.72503805 0 0 Z M-11.875 8.4375 C-13.81082621 12.84688192 -13.83580086 17.69140443 -12.1953125 22.22265625 C-11.0130035 24.39884051 -11.0130035 24.39884051 -7.5625 24.9375 C-4.181816 25.27170256 -4.181816 25.27170256 -2.125 24.0625 C0.30257119 19.61195281 0.31748155 15.34319118 -0.8125 10.5625 C-1.73567763 7.87237477 -1.73567763 7.87237477 -4 7 C-8.24084829 6.51852462 -8.24084829 6.51852462 -11.875 8.4375 Z " fill="#4D8CBF" transform="translate(277,37)"/>
<path d="M0 0 C3.65511668 1.44944282 5.17024483 2.48546546 7.05078125 5.91796875 C9.35031613 11.64148067 9.4806213 17.03694983 8 23 C6.21085806 26.6445484 4.69583508 28.49085238 1.4375 30.875 C-4.73006223 32.89347491 -10.56620118 33.12997802 -16.5 30.375 C-21.12208463 25.9840196 -22.19500269 22.32831756 -22.4375 16.0625 C-22.2852615 10.48503491 -21.45081322 7.38346545 -18 3 C-12.39473316 -1.14047585 -6.70238663 -0.72503805 0 0 Z M-11.875 8.4375 C-13.81082621 12.84688192 -13.83580086 17.69140443 -12.1953125 22.22265625 C-11.0130035 24.39884051 -11.0130035 24.39884051 -7.5625 24.9375 C-4.181816 25.27170256 -4.181816 25.27170256 -2.125 24.0625 C0.30257119 19.61195281 0.31748155 15.34319118 -0.8125 10.5625 C-1.73567763 7.87237477 -1.73567763 7.87237477 -4 7 C-8.24084829 6.51852462 -8.24084829 6.51852462 -11.875 8.4375 Z " fill="#4D8CBF" transform="translate(118,37)"/>
<path d="M0 0 C1.12148437 -0.02578125 2.24296875 -0.0515625 3.3984375 -0.078125 C6.95139283 0.28319249 8.78750117 1.12445542 11.625 3.25 C12.97548039 5.95096077 12.75463577 8.07726517 12.7578125 11.09765625 C12.75974609 12.84079102 12.75974609 12.84079102 12.76171875 14.61914062 C12.75785156 15.83794922 12.75398438 17.05675781 12.75 18.3125 C12.75580078 20.14651367 12.75580078 20.14651367 12.76171875 22.01757812 C12.76042969 23.17837891 12.75914062 24.33917969 12.7578125 25.53515625 C12.75668457 26.60644775 12.75555664 27.67773926 12.75439453 28.78149414 C12.625 31.25 12.625 31.25 11.625 32.25 C9.1875 32.4375 9.1875 32.4375 6.625 32.25 C5.965 31.59 5.305 30.93 4.625 30.25 C3.635 30.91 2.645 31.57 1.625 32.25 C-0.49609375 32.515625 -0.49609375 32.515625 -2.8125 32.5 C-3.57433594 32.50515625 -4.33617187 32.5103125 -5.12109375 32.515625 C-7.65789809 32.21666019 -9.22430201 31.61987133 -11.375 30.25 C-13.82105705 26.58091443 -14.21446402 23.51381231 -13.375 19.25 C-11.19925584 16.55894802 -9.46434144 14.79467072 -6.375 13.25 C-4.50120395 13.17966231 -2.62498898 13.1656978 -0.75 13.1875 C0.75433594 13.20103516 0.75433594 13.20103516 2.2890625 13.21484375 C3.05992187 13.22644531 3.83078125 13.23804688 4.625 13.25 C4.295 11.27 3.965 9.29 3.625 7.25 C-1.4052076 7.77537724 -6.39385239 8.35594786 -11.375 9.25 C-12.0625 6.9375 -12.0625 6.9375 -12.375 4.25 C-9.27140563 -0.09503212 -4.9609754 0.06811408 0 0 Z M-4.375 20.25 C-4.705 21.24 -5.035 22.23 -5.375 23.25 C-4.385 24.24 -3.395 25.23 -2.375 26.25 C1.42047921 25.28223902 1.42047921 25.28223902 4.625 23.25 C4.66563832 21.58382885 4.667721 19.91611905 4.625 18.25 C1.04695344 18.05121964 -1.36708089 18.20891203 -4.375 20.25 Z " fill="#4D8CBF" transform="translate(201.375,36.75)"/>
<path d="M0 0 C2.31 0 4.62 0 7 0 C7.33 0.99 7.66 1.98 8 3 C8.556875 2.51402344 9.11375 2.02804688 9.6875 1.52734375 C13.5383788 -1.01605762 17.54206995 -0.68241192 22 0 C25.09799981 2.19126816 25.80352112 3.41056336 27 7 C27.08239169 8.84610532 27.10743359 10.69505164 27.09765625 12.54296875 C27.09443359 13.61611328 27.09121094 14.68925781 27.08789062 15.79492188 C27.07951172 16.91447266 27.07113281 18.03402344 27.0625 19.1875 C27.05798828 20.31865234 27.05347656 21.44980469 27.04882812 22.61523438 C27.03703498 25.41020927 27.0205765 28.2050782 27 31 C20.25 32.125 20.25 32.125 18 31 C17.505 19.615 17.505 19.615 17 8 C15.02 8.33 13.04 8.66 11 9 C8.94561894 12.0815716 8.73480845 12.90170438 8.62109375 16.4140625 C8.58693359 17.25710937 8.55277344 18.10015625 8.51757812 18.96875 C8.49115234 19.8453125 8.46472656 20.721875 8.4375 21.625 C8.37781365 23.36733336 8.31422504 25.10953893 8.24609375 26.8515625 C8.22216553 27.62322754 8.1982373 28.39489258 8.17358398 29.18994141 C8 31 8 31 7 32 C4 32.125 4 32.125 1 32 C0 31 0 31 -0.11352539 28.04077148 C-0.10828857 26.74727783 -0.10305176 25.45378418 -0.09765625 24.12109375 C-0.0962413 23.4344313 -0.09482635 22.74776886 -0.09336853 22.04029846 C-0.08775479 19.83932199 -0.07520007 17.63844591 -0.0625 15.4375 C-0.05748676 13.94856917 -0.05292355 12.45963676 -0.04882812 10.97070312 C-0.03778093 7.31376925 -0.02050713 3.65689442 0 0 Z " fill="#4D8CBF" transform="translate(155,37)"/>
<path d="M0 0 C10.56 0 21.12 0 32 0 C32 1.98 32 3.96 32 6 C31.67 6.33 31.34 6.66 31 7 C27.37 7 23.74 7 20 7 C20 18.22 20 29.44 20 41 C13 42 13 42 11 41 C11 29.78 11 18.56 11 7 C7.37 7 3.74 7 0 7 C0 4.69 0 2.38 0 0 Z " fill="#4D8CBF" transform="translate(67,27)"/>
<path d="M0 0 C0 0.66 0 1.32 0 2 C-0.95261719 2.44730469 -1.90523437 2.89460938 -2.88671875 3.35546875 C-4.15390985 3.9655978 -5.42082228 4.57630585 -6.6875 5.1875 C-7.31333984 5.47947266 -7.93917969 5.77144531 -8.58398438 6.07226562 C-12.80359029 8.12683814 -15.91876871 10.35854484 -19 14 C-19.41986946 16.71163778 -19.41986946 16.71163778 -19 19 C-18.67 17.96875 -18.34 16.9375 -18 15.875 C-15.91801484 11.07865101 -12.52048042 8.47287605 -8 6 C-2.20603624 3.79950505 2.99725857 3.62232164 9 5 C12.99118629 7.14341486 15.37969632 8.75634749 17 13 C17.046875 15.25390625 17.046875 15.25390625 16.75 17.5625 C16.66234375 18.32691406 16.5746875 19.09132813 16.484375 19.87890625 C16 22 16 22 14 25 C13.34 24.67 12.68 24.34 12 24 C12.33 21.69 12.66 19.38 13 17 C12.071875 18.485 12.071875 18.485 11.125 20 C10.42375 20.99 9.7225 21.98 9 23 C8.34 23 7.68 23 7 23 C7.61277612 20.03824877 8.25372522 18.61941217 10 16 C9.91778291 12.92334973 9.91778291 12.92334973 9 10 C5.57905758 7.71937172 4.31812778 7.78074993 0.3125 7.875 C-0.68136719 7.89304687 -1.67523438 7.91109375 -2.69921875 7.9296875 C-3.45847656 7.95289063 -4.21773437 7.97609375 -5 8 C-5 8.66 -5 9.32 -5 10 C-4.01 10.33 -3.02 10.66 -2 11 C-1.50594862 15.1500316 -1.81097215 16.71915862 -4.1875 20.25 C-6.93150916 22.93303118 -8.29603567 24.20629336 -12 25 C-15.84745542 24.86500156 -18.22093737 24.51937508 -21.4375 22.375 C-23.69968197 18.9364834 -23.68622007 17.0486984 -23 13 C-18.98528001 5.24045717 -8.64827183 -0.65060394 0 0 Z " fill="#97C8DD" transform="translate(39,14)"/>
<path d="M0 0 C2.31 0 4.62 0 7 0 C7.33 0.66 7.66 1.32 8 2 C8.99 1.34 9.98 0.68 11 0 C13.33199388 -0.07905064 15.66832622 -0.08798769 18 0 C18 2.97 18 5.94 18 9 C17.071875 8.9175 16.14375 8.835 15.1875 8.75 C12.03707141 8.679291 12.03707141 8.679291 10.33984375 10.44140625 C8.34062359 14.25915904 8.46851865 17.9357412 8.375 22.1875 C8.10521583 30.89478417 8.10521583 30.89478417 7 32 C4 32.125 4 32.125 1 32 C0 31 0 31 -0.11352539 28.04077148 C-0.10828857 26.74727783 -0.10305176 25.45378418 -0.09765625 24.12109375 C-0.0962413 23.4344313 -0.09482635 22.74776886 -0.09336853 22.04029846 C-0.08775479 19.83932199 -0.07520007 17.63844591 -0.0625 15.4375 C-0.05748676 13.94856917 -0.05292355 12.45963676 -0.04882812 10.97070312 C-0.03778093 7.31376925 -0.02050713 3.65689442 0 0 Z " fill="#4D8CBF" transform="translate(132,37)"/>
<path d="M0 0 C1.0825154 3.2475462 0.98903488 5.18260904 0.6875 8.5625 C0.56955078 10.01849609 0.56955078 10.01849609 0.44921875 11.50390625 C0 14 0 14 -2 16 C-2.309375 16.804375 -2.61875 17.60875 -2.9375 18.4375 C-3.99543481 20.98898982 -4.85348838 22.3006783 -7 24 C-7.66 24 -8.32 24 -9 24 C-8.67 22.35 -8.34 20.7 -8 19 C-7.34 19 -6.68 19 -6 19 C-5.87625 18.236875 -5.7525 17.47375 -5.625 16.6875 C-5 14 -5 14 -3 11 C-3 10.01 -3 9.02 -3 8 C-3.9075 8.804375 -4.815 9.60875 -5.75 10.4375 C-8.10309908 12.41142671 -9.86938046 13.63877467 -13 14 C-12.62355752 11.39299537 -12.2656158 10.24312659 -10.29296875 8.4375 C-9.59816406 7.963125 -8.90335938 7.48875 -8.1875 7 C-5.17167871 4.86672605 -2.51694196 2.72668712 0 0 Z " fill="#7CB2D7" transform="translate(52,37)"/>
<path d="M0 0 C0 0.66 0 1.32 0 2 C-0.59425781 2.14695312 -1.18851563 2.29390625 -1.80078125 2.4453125 C-10.27207678 4.7377004 -20.34390635 8.04584002 -25 16 C-26.10182455 18.3099655 -27.06413559 20.61354575 -28 23 C-28.66 23 -29.32 23 -30 23 C-29.6392687 17.10805543 -28.24558678 13.20690262 -24 9 C-20.81115062 6.69604283 -17.49011273 4.80806468 -14 3 C-13.35417969 2.65710938 -12.70835938 2.31421875 -12.04296875 1.9609375 C-7.9491364 -0.01667 -4.49838962 -0.27541161 0 0 Z " fill="#B4E0E5" transform="translate(41,9)"/>
<path d="M0 0 C0 0.66 0 1.32 0 2 C-0.94101562 2.44730469 -1.88203125 2.89460938 -2.8515625 3.35546875 C-4.10958875 3.96570537 -5.36738929 4.57640747 -6.625 5.1875 C-7.24246094 5.47947266 -7.85992187 5.77144531 -8.49609375 6.07226562 C-11.74234587 7.66122061 -14.52556636 9.31451535 -17.2734375 11.67578125 C-20 14 -20 14 -23 15 C-21.60301653 9.72250689 -18.34456889 6.9976704 -14 4 C-9.50811208 1.50450671 -5.26240631 -0.67902017 0 0 Z " fill="#ACD7E2" transform="translate(39,14)"/>
<path d="M0 0 C-0.33 0.66 -0.66 1.32 -1 2 C-2.96875 2.640625 -2.96875 2.640625 -5.5 3.25 C-14.01765007 5.69928135 -19.88664609 9.66487884 -24.22265625 17.4609375 C-24.47917969 17.96882813 -24.73570313 18.47671875 -25 19 C-26.01498047 15.84679401 -26.13609061 15.28455309 -24.625 12.125 C-20.09936632 5.9179677 -11.52522863 1.23415326 -4.25 -0.75 C-2 -1 -2 -1 0 0 Z " fill="#ECF6F7" transform="translate(40,12)"/>
<path d="M0 0 C0.66 0.33 1.32 0.66 2 1 C1 4 1 4 -1.3125 5.625 C-4.96180576 8.84996788 -6.28553354 12.51748435 -8 17 C-8.66 17 -9.32 17 -10 17 C-9.63472941 11.03391367 -7.97285032 7.46945661 -4 3 C-1.6875 1.0625 -1.6875 1.0625 0 0 Z " fill="#AFDBE3" transform="translate(21,15)"/>
<path d="M0 0 C1 3 1 3 -0.25 6 C-1.69459787 8.47645349 -2.76455255 10.25051939 -5 12 C-5.66 12 -6.32 12 -7 12 C-6.67 10.35 -6.34 8.7 -6 7 C-5.34 7 -4.68 7 -4 7 C-3.896875 6.21625 -3.79375 5.4325 -3.6875 4.625 C-3 2 -3 2 0 0 Z " fill="#78AED6" transform="translate(50,49)"/>
<path d="M0 0 C1.2077558 3.62326739 0.54311128 4.64146369 -1 8 C-1.66 8 -2.32 8 -3 8 C-2.74438677 5.6568787 -2.40729228 3.32156597 -2 1 C-1.34 0.67 -0.68 0.34 0 0 Z " fill="#A4D2E1" transform="translate(14,24)"/>
<path d="M0 0 C0.33 0.99 0.66 1.98 1 3 C-0.375 4.5 -0.375 4.5 -2 6 C-2.66 6 -3.32 6 -4 6 C-3.67 4.35 -3.34 2.7 -3 1 C-2.01 0.67 -1.02 0.34 0 0 Z " fill="#6FA7D3" transform="translate(47,55)"/>
</svg>
